<svg height="48" width="48" xmlns="http://www.w3.org/2000/svg">
 <path d="m4 36v-28c0-1.108.8988-2.1224 2-2h16l4 4h16.103s1.8975 0 1.8975 2v24c0 1.108-.892 2-2 2h-36c-1.108 0-2-.892-2-2z" fill="#86460b"/>
 <path d="m44 40v-28c0-1.108-.89878-2.1224-2-2h-16l-4 4h-16c-2 0-2 1.9167-2 1.9167v24.083c0 1.108.892 2 2 2h36c1.108 0 2-.892 2-2z" fill="#6ba4e7"/>
 <path d="m6 6c-1.108 0-2 .892-2 2v1c0-1.108.892-2 2-2h16l4 4v-1l-4-4z" fill="#ffffff" opacity=".1"/>
 <path d="m26 10l-4 4h-16c-2 0-2 1.9062-2 1.9062v1s0-1.906 2-1.906h16l4-4h16c1.1012-.1224 2 .892 2 2v-1c0-1.108-.89878-2.1224-2-2h-16z" fill="#ffffff" opacity=".1"/>
 <path d="m25 10l-3 3h-16c-2 0-2 1.9062-2 1.9062v1s0-1.906 2-1.906h16l3.5-3.5z" opacity=".1"/>
 <path d="m4 38.989v1.006c0 1.108.892 2 2 2h36c1.108 0 2-.892 2-2v-1.0059c0 1.108-.892 2-2 2h-36c-1.108 0-2-.892-2-2z" opacity=".3"/>
 <g fill="#ffffff" fill-opacity=".078" transform="matrix(.91202165 0 0 .91202165 23.068257 20.636926)">
<path d="m4 1c-.554 0-1 .446-1 1v2h-1c-1.108 0-2 .892-2 2v5c0 1.108.892 2 2 2h1v3h10v-3h1c1.108 0 2-.892 2-2v-5c0-1.108-.892-2-2-2h-1v-2c0-.554-.446-1-1-1zm .5 1h7c .277 0 .5.223.5.5v1.5h-8v-1.5c0-.277.223-.5.5-.5zm-2 4h11c .277 0 .5.223.5.5v4c0 .277-.223.5-.5.5h-.5v-3h-10v3h-.5c-.277 0-.5-.223-.5-.5v-4c0-.277.223-.5.5-.5zm1.5 3h8v6h-8z" overflow="visible"/>
<path d="m5 9h6v1h-6z" opacity=".6" overflow="visible"/>
<path d="m5 11h6v1h-6z" opacity=".6" overflow="visible"/>
<path d="m5 13h6v1h-6z" opacity=".6" overflow="visible"/>
 </g>
 <g fill="#ffffff" transform="matrix(.91202165 0 0 .91202165 22.943437 19.829099)">
<path d="m4 1c-.554 0-1 .446-1 1v2h-1c-1.108 0-2 .892-2 2v5c0 1.108.892 2 2 2h1v3h10v-3h1c1.108 0 2-.892 2-2v-5c0-1.108-.892-2-2-2h-1v-2c0-.554-.446-1-1-1zm .5 1h7c .277 0 .5.223.5.5v1.5h-8v-1.5c0-.277.223-.5.5-.5zm-2 4h11c .277 0 .5.223.5.5v4c0 .277-.223.5-.5.5h-.5v-3h-10v3h-.5c-.277 0-.5-.223-.5-.5v-4c0-.277.223-.5.5-.5zm1.5 3h8v6h-8z" overflow="visible"/>
<path d="m5 9h6v1h-6z" opacity=".6" overflow="visible"/>
<path d="m5 11h6v1h-6z" opacity=".6" overflow="visible"/>
<path d="m5 13h6v1h-6z" opacity=".6" overflow="visible"/>
 </g>
</svg>
