<svg height="48" width="48" xmlns="http://www.w3.org/2000/svg">
 <path d="m4 36v-28c0-1.108.89878-2.1224 2-2h16l4 4h16.103s1.8975 0 1.8975 2v24c0 1.108-.892 2-2 2h-36c-1.108 0-2-.892-2-2z" fill="#86460b"/>
 <path d="m44 40v-28c0-1.108-.89878-2.1224-2-2h-16l-4 4h-16c-2 0-2 1.9167-2 1.9167v24.083c0 1.108.892 2 2 2h36c1.108 0 2-.892 2-2z" fill="#6ba4e7"/>
 <path d="m25 11.961v14.039c0 1.1.895 2 2 2s2-.9 2-2v-16h-2.056z" opacity=".2"/>
 <path d="m27 10v1h1v-1zm0 1h-1v1h1zm0 1v1h1v-1zm0 1h-1v1h1zm0 1v1h1v-1zm0 1h-1v1h1zm0 1v1h1v-1zm0 1h-1v1h1zm0 1v1h1v-1zm0 1h-1v1h1zm0 1v1h1v-1zm0 1h-1v1h1zm0 1v1h1v-1zm0 1h-1v1h1zm0 1v1h1v-1zm0 1h-1v1h1zm0 1v1c .552 0 1-.5 1-1z" fill="#ffffff"/>
 <path d="m26 10v1h1v-1zm0 2v1h1v-1zm0 2v1h1v-1zm0 2v1h1v-1zm0 2v1h1v-1zm0 2v1h1v-1zm0 2v1h1v-1zm0 2v1h1v-1zm0 2c0 .5.448 1 1 1v-1z" fill="#dddddd"/>
 <path d="m27 28c-1.105 0-2 .9-2 2v4c0 1.1.895 2 2 2s2-.9 2-2v-4c0-1.1-.895-2-2-2zm0 1c .552 0 1 .4 1 1 0 .5-.448 1-1 1s-1-.5-1-1c0-.6.448-1 1-1zm0 3c .552 0 1 .4 1 1v1c0 .5-.448 1-1 1s-1-.5-1-1v-1c0-.6.448-1 1-1z" opacity=".2"/>
 <path d="m27 27c-1.105 0-2 .9-2 2v4c0 1.1.895 2 2 2s2-.9 2-2v-4c0-1.1-.895-2-2-2zm0 1c .552 0 1 .4 1 1 0 .5-.448 1-1 1s-1-.5-1-1c0-.6.448-1 1-1zm0 3c .552 0 1 .4 1 1v1c0 .5-.448 1-1 1s-1-.5-1-1v-1c0-.6.448-1 1-1z" fill="#ffffff"/>
 <path d="m6 6c-1.108 0-2 .892-2 2v1c0-1.108.892-2 2-2h16l4 4v-1l-4-4z" fill="#ffffff" opacity=".1"/>
 <path d="m26 10l-4 4h-16c-2 0-2 1.9062-2 1.9062v1s0-1.9062 2-1.9062h16l4-4h16c1.1012-.12236 2 .892 2 2v-1c0-1.108-.89878-2.1224-2-2z" fill="#ffffff" opacity=".1"/>
 <path d="m25 10l-3 3h-16c-2 0-2 1.9062-2 1.9062v1s0-1.9062 2-1.9062h16l3.5-3.5z" opacity=".1"/>
 <path d="m4 38.989v1.006c0 1.108.892 2 2 2h36c1.108 0 2-.892 2-2v-1.0059c0 1.108-.892 2-2 2h-36c-1.108 0-2-.89201-2-2z" opacity=".3"/>
</svg>
