<svg height="48" width="48" xmlns="http://www.w3.org/2000/svg">
 <path d="m4 36v-28c0-1.108.8988-2.1224 2-2h16l4 4h16.103s1.8975 0 1.8975 2v24c0 1.108-.892 2-2 2h-36c-1.108 0-2-.892-2-2z" fill="#86460b"/>
 <g fill="#ffffff" transform="matrix(1.3333 0 0 1.4 22.333 -1432.1)">
<path d="m14 1045.8l-4-6.4286h-3.875l3.75 6.4286z"/>
<path d="m6.875 1046.5l-1.875 2.8571h7l2-2.8571z"/>
<path d="m5.75 3.7143l-3.75 6.4287 2 2.857 3.775-5.7143z" transform="translate(0 1036.4)"/>
 </g>
 <g opacity=".2" transform="matrix(1.3333 0 0 1.4 22.333 -1431.1)">
<path d="m14 1045.8l-4-6.4286h-3.875l3.75 6.4286z"/>
<path d="m6.875 1046.5l-1.875 2.8571h7l2-2.8571z"/>
<path d="m5.75 3.7143l-3.75 6.4287 2 2.857 3.775-5.7143z" transform="translate(0 1036.4)"/>
 </g>
 <path d="m44 40v-28c0-1.108-.89878-2.1224-2-2h-16l-4 4h-16c-2 0-2 1.9167-2 1.9167v24.083c0 1.108.892 2 2 2h36c1.108 0 2-.892 2-2z" fill="#6ba4e7"/>
 <path d="m6 6c-1.108 0-2 .892-2 2v1c0-1.108.892-2 2-2h16l4 4v-1l-4-4z" fill="#ffffff" opacity=".1"/>
 <path d="m26 10l-4 4h-16c-2 0-2 1.9062-2 1.9062v1s0-1.906 2-1.906h16l4-4h16c1.1012-.1224 2 .892 2 2v-1c0-1.108-.89878-2.1224-2-2h-16z" fill="#ffffff" opacity=".1"/>
 <path d="m25 10l-3 3h-16c-2 0-2 1.9062-2 1.9062v1s0-1.906 2-1.906h16l3.5-3.5z" opacity=".1"/>
 <path d="m4 38.989v1.006c0 1.108.892 2 2 2h36c1.108 0 2-.892 2-2v-1.0059c0 1.108-.892 2-2 2h-36c-1.108 0-2-.892-2-2z" opacity=".3"/>
 <path d="m25.281 34.097c-.123.134-.215.248-.281.339.07499-.1021.17082-.21684.28074-.33895zm15.204-3.8768c.04276.02057.08624.04075.12164.06166-.028-.016-.07-.038-.122-.062zm-8.2218.36105c4.5381-1.2474 6.9738-.80368 7.9178-.48158-1.0379-.35684-3.0704-.64473-4.113-1.2658-.99625-.59347-2.056-2.3899-4.6959-1.6643-2.6394.72573-2.6457 2.7611-3.256 3.8511-.49973.89368-2.0479 2.2-2.8344 3.0758.74714-.81263 2.6483-2.3232 6.9818-3.5153zm1.37-2.645c.24827-.06818.63935.01228.94687.2325.43704.31246.56831.7881.09316.91873-.47567.13061-1.0843-.2132-1.2735-.59384-.13324-.26873-.0144-.48956.23352-.55737zm-1.9434.341c.40672-.1113.81034.08185.90218.43254.09132.34995-.164.72484-.57066.83626-.4068.11168-.81034-.08135-.90223-.43204-.09132-.34994.16396-.72458.57077-.83673zm-2.5558 1.3887c.15952-.34868.45867-.61868.70644-.68721.24763-.06805.45867.06203.47391.36274.0216.42678-.33787 1.0367-.81354 1.1676-.47479.1306-.59279-.34833-.36688-.84316zm11.844 1.8162c-.32-1.2342-4.0618-1.1605-8.3892.03632-4.3271 1.1968-7.6036 3.0637-7.2826 4.2974.21668.835 2.064 1.3078 4.5751 1.1561 1.0495.09 2.4554-.06442 3.9547-.47677 1.4778-.40609 2.756-.98237 3.6208-1.5883 2.32-1.1782 3.7418-2.5749 3.521-3.4247zm-7.2932 4.4309c-1.8824.51765-3.4816.65852-3.6081.17297-.12684-.48506 1.3021-1.2759 3.1848-1.7933 1.8822-.51815 3.5058-.565 3.6328-.07972.12684.48482-1.3274 1.1827-3.2096 1.7001z" opacity=".2"/>
 <path d="m25.281 33.097c-.123.134-.215.248-.281.339.07499-.1021.17082-.21684.28074-.33895zm15.204-3.8768c.04276.02057.08624.04075.12164.06166-.028-.016-.07-.038-.122-.062zm-8.2218.36105c4.5381-1.2474 6.9738-.80368 7.9178-.48158-1.0379-.35684-3.0704-.64473-4.113-1.2658-.99625-.59347-2.056-2.3899-4.6959-1.6643-2.6394.72573-2.6457 2.7611-3.256 3.8511-.49973.89368-2.0479 2.2-2.8344 3.0758.74714-.81263 2.6483-2.3232 6.9818-3.5153zm1.37-2.645c.24827-.06818.63935.01228.94687.2325.43704.31246.56831.7881.09316.91873-.47567.13061-1.0843-.2132-1.2735-.59384-.13324-.26873-.0144-.48956.23352-.55737zm-1.9434.341c.40672-.1113.81034.08185.90218.43254.09132.34995-.164.72484-.57066.83626-.4068.11168-.81034-.08135-.90223-.43204-.09132-.34994.16396-.72458.57077-.83673zm-2.5558 1.3887c.15952-.34868.45867-.61868.70644-.68721.24763-.06805.45867.06203.47391.36274.0216.42678-.33787 1.0367-.81354 1.1676-.47479.1306-.59279-.34833-.36688-.84316zm11.844 1.8162c-.32-1.2342-4.0618-1.1605-8.3892.03632-4.3271 1.1968-7.6036 3.0637-7.2826 4.2974.21668.835 2.064 1.3078 4.5751 1.1561 1.0495.09 2.4554-.06442 3.9547-.47677 1.4778-.40609 2.756-.98237 3.6208-1.5883 2.32-1.1782 3.7418-2.5749 3.521-3.4247zm-7.2932 4.4309c-1.8824.51765-3.4816.65852-3.6081.17297-.12684-.48506 1.3021-1.2759 3.1848-1.7933 1.8822-.51815 3.5058-.565 3.6328-.07972.12684.48482-1.3274 1.1827-3.2096 1.7001z" fill="#ffffff"/>
</svg>
