<svg height="48" width="48" xmlns="http://www.w3.org/2000/svg">
 <clipPath id="a">
<circle cx="286" cy="26" r="10"/>
 </clipPath>
 <path d="m4 36v-28c0-1.108.8988-2.1224 2-2h16l4 4h16.103s1.8975 0 1.8975 2v24c0 1.108-.892 2-2 2h-36c-1.108 0-2-.892-2-2z" fill="#86460b"/>
 <path d="m44 40v-28c0-1.108-.89878-2.1224-2-2h-16l-4 4h-16c-2 0-2 1.9167-2 1.9167v24.083c0 1.108.892 2 2 2h36c1.108 0 2-.892 2-2z" fill="#6ba4e7"/>
 <path d="m6 6c-1.108 0-2 .892-2 2v1c0-1.108.892-2 2-2h16l4 4v-1l-4-4z" fill="#ffffff" opacity=".1"/>
 <path d="m26 10l-4 4h-16c-2 0-2 1.9062-2 1.9062v1s0-1.906 2-1.906h16l4-4h16c1.1012-.1224 2 .892 2 2v-1c0-1.108-.89878-2.1224-2-2h-16z" fill="#ffffff" opacity=".1"/>
 <path d="m25 10l-3 3h-16c-2 0-2 1.9062-2 1.9062v1s0-1.906 2-1.906h16l3.5-3.5z" opacity=".1"/>
 <path d="m4 38.989v1.006c0 1.108.892 2 2 2h36c1.108 0 2-.892 2-2v-1.0059c0 1.108-.892 2-2 2h-36c-1.108 0-2-.892-2-2z" opacity=".3"/>
 <g opacity=".2" transform="matrix(1.3333 0 0 1.4 22.333 -1431.1)">
<path d="m14 1045.8l-4-6.4286h-3.875l3.75 6.4286z"/>
<path d="m6.875 1046.5l-1.875 2.8571h7l2-2.8571z"/>
<path d="m5.75 3.7143l-3.75 6.4287 2 2.857 3.775-5.7143z" transform="translate(0 1036.4)"/>
 </g>
 <g fill="#ffffff" transform="matrix(1.3333 0 0 1.4 22.333 -1432.1)">
<path d="m14 1045.8l-4-6.4286h-3.875l3.75 6.4286z"/>
<path d="m6.875 1046.5l-1.875 2.8571h7l2-2.8571z"/>
<path d="m5.75 3.7143l-3.75 6.4287 2 2.857 3.775-5.7143z" transform="translate(0 1036.4)"/>
 </g>
 <g transform="translate(-48.93 -438.16)">
<circle clip-path="url(#a)" cx="286" cy="26" opacity="0" r="10" stroke-width=".455" transform="matrix(2 0 0 2 -182.17 393.41)"/>
<circle clip-path="url(#a)" cx="286" cy="26" opacity="0" r="10" stroke-width=".909" transform="matrix(2 0 0 2 -182.17 393.41)"/>
<path d="m8 1a7 7 0 0 0 -7 7 7 7 0 0 0 7 7 7 7 0 0 0 7-7 7 7 0 0 0 -7-7zm-4 3h2v .0059l.002-.002 1.998 2.9961 2-3h2v8h-2v-4l-2 2-2-2v4h-2z" opacity=".5" transform="translate(424 428)"/>
 </g>
</svg>
