<svg height="48" width="48" xmlns="http://www.w3.org/2000/svg">
 <path d="m4 36v-28c0-1.108.8988-2.1224 2-2h16l4 4h16.103s1.8975 0 1.8975 2v24c0 1.108-.892 2-2 2h-36c-1.108 0-2-.892-2-2z" fill="#86460b"/>
 <path d="m44 40v-28c0-1.108-.89878-2.1224-2-2h-16l-4 4h-16c-2 0-2 1.9167-2 1.9167v24.083c0 1.108.892 2 2 2h36c1.108 0 2-.892 2-2z" fill="#6ba4e7"/>
 <path d="m6 6c-1.108 0-2 .892-2 2v1c0-1.108.892-2 2-2h16l4 4v-1l-4-4z" fill="#ffffff" opacity=".1"/>
 <path d="m26 10l-4 4h-16c-2 0-2 1.9062-2 1.9062v1s0-1.906 2-1.906h16l4-4h16c1.1012-.1224 2 .892 2 2v-1c0-1.108-.89878-2.1224-2-2h-16z" fill="#ffffff" opacity=".1"/>
 <path d="m25 10l-3 3h-16c-2 0-2 1.9062-2 1.9062v1s0-1.906 2-1.906h16l3.5-3.5z" opacity=".1"/>
 <path d="m4 38.989v1.006c0 1.108.892 2 2 2h36c1.108 0 2-.892 2-2v-1.0059c0 1.108-.892 2-2 2h-36c-1.108 0-2-.892-2-2z" opacity=".3"/>
 <g opacity=".2" transform="matrix(1.1667 0 0 1.1667 23.667 -1187.4)">
<path d="m11.429 1041.8l-3.4286 2.1428 2.5714 1.7143 3.4286-1.7143z"/>
<path d="m8 1043.9l-3.4286-2.1-2.5714 2.1 3.4286 1.7143z"/>
<path d="m8 8.4286l-2.5714 1.7144-.8572-.4287v2.5714l3.4286 1.714 3.4286-1.7143v-2.5714l-.85714.42857z" transform="translate(0 1036.4)"/>
<path d="m11.429 1041.8l-3.4286-1.7143 2.5714-1.7143 3.4286 1.7143z"/>
<path d="m8 1040.1l-3.4286 1.7-2.5714-1.7 3.4286-1.7143z"/>
 </g>
 <g fill="#ffffff" transform="matrix(1.1667 0 0 1.1667 23.667 -1188.4)">
<path d="m11.429 1041.8l-3.4286 2.1428 2.5714 1.7143 3.4286-1.7143z"/>
<path d="m8 1043.9l-3.4286-2.1-2.5714 2.1 3.4286 1.7143z"/>
<path d="m8 8.4286l-2.5714 1.7144-.8572-.4287v2.5714l3.4286 1.714 3.4286-1.7143v-2.5714l-.85714.42857z" transform="translate(0 1036.4)"/>
<path d="m11.429 1041.8l-3.4286-1.7143 2.5714-1.7143 3.4286 1.7143z"/>
<path d="m8 1040.1l-3.4286 1.7-2.5714-1.7 3.4286-1.7143z"/>
 </g>
</svg>
