<svg height="48" width="48" xmlns="http://www.w3.org/2000/svg">
 <path d="m4 36v-28c0-1.108.8988-2.1224 2-2h16l4 4h16.103s1.8975 0 1.8975 2v24c0 1.108-.892 2-2 2h-36c-1.108 0-2-.892-2-2z" fill="#86460b"/>
 <path d="m33 24c-2.216 0-4 1.8216-4 4.0625v1.938h-1c-.554 0-1 .446-1 1v6c0 .554.446 1 1 1h10c .554 0 1-.446 1-1v-6c0-.554-.446-1-1-1h-1v-1.9375c0-2.24-1.784-4.062-4-4.062zm0 2c1.108 0 2 .892 2 2v2h-4v-2c0-1.108.892-2 2-2z" opacity=".2"/>
 <path d="m44 40v-28c0-1.108-.89878-2.1224-2-2h-16l-4 4h-16c-2 0-2 1.9167-2 1.9167v24.083c0 1.108.892 2 2 2h36c1.108 0 2-.892 2-2z" fill="#6ba4e7"/>
 <path d="m33 24c-3.866 0-7 3.134-7 7s3.134 7 7 7h4.375s.8204 0 .875-.875c0-.875-.875-.875-.875-.875h-4.375c-2.8995 0-5.25-2.3505-5.25-5.25s2.3505-5.25 5.25-5.25 5.25 2.3505 5.25 5.25v.875c0 .48324-.39176.875-.875.875s-.875-.39176-.875-.875v-.875c0-1.933-1.567-3.5-3.5-3.5s-3.5 1.567-3.5 3.5 1.567 3.5 3.5 3.5c.91539 0 1.7416-.36125 2.3652-.93652.499.593 1.235.936 2.01.936 1.45 0 2.625-1.175 2.625-2.625v-.875c0-3.866-3.134-7-7-7zm0 5.25c.96651 0 1.75.78351 1.75 1.75s-.78349 1.75-1.75 1.75-1.75-.78351-1.75-1.75.78349-1.75 1.75-1.75z" opacity=".2"/>
 <path d="m33 23c-3.866 0-7 3.134-7 7s3.134 7 7 7h4.375s.8204 0 .875-.875c0-.875-.875-.875-.875-.875h-4.375c-2.8995 0-5.25-2.3505-5.25-5.25s2.3505-5.25 5.25-5.25 5.25 2.3505 5.25 5.25v.875c0 .48324-.39176.875-.875.875s-.875-.39176-.875-.875v-.875c0-1.933-1.567-3.5-3.5-3.5s-3.5 1.567-3.5 3.5 1.567 3.5 3.5 3.5c.91539 0 1.7416-.36125 2.3652-.93652.499.593 1.235.936 2.01.936 1.45 0 2.625-1.175 2.625-2.625v-.875c0-3.866-3.134-7-7-7zm0 5.25c.96651 0 1.75.78351 1.75 1.75s-.78349 1.75-1.75 1.75-1.75-.78351-1.75-1.75.78349-1.75 1.75-1.75z" fill="#ffffff"/>
 <path d="m6 6c-1.108 0-2 .892-2 2v1c0-1.108.892-2 2-2h16l4 4v-1l-4-4z" fill="#ffffff" opacity=".1"/>
 <path d="m26 10l-4 4h-16c-2 0-2 1.9062-2 1.9062v1s0-1.906 2-1.906h16l4-4h16c1.1012-.1224 2 .892 2 2v-1c0-1.108-.89878-2.1224-2-2h-16z" fill="#ffffff" opacity=".1"/>
 <path d="m25 10l-3 3h-16c-2 0-2 1.9062-2 1.9062v1s0-1.906 2-1.906h16l3.5-3.5z" opacity=".1"/>
 <path d="m4 38.989v1.006c0 1.108.892 2 2 2h36c1.108 0 2-.892 2-2v-1.0059c0 1.108-.892 2-2 2h-36c-1.108 0-2-.892-2-2z" opacity=".3"/>
</svg>
