<?xml version="1.0" encoding="UTF-8" standalone="no"?>
<svg
   width="48"
   height="48"
   version="1.1"
   id="svg20487"
   xmlns="http://www.w3.org/2000/svg"
   xmlns:svg="http://www.w3.org/2000/svg">
  <defs
     id="defs20481">
    <style
       id="current-color-scheme"
       type="text/css">
   .ColorScheme-Text { color:#444444; } .ColorScheme-Highlight { color:#4285f4; } .ColorScheme-NeutralText { color:#ff9800; } .ColorScheme-PositiveText { color:#4caf50; } .ColorScheme-NegativeText { color:#f44336; }
  </style>
  </defs>
  <g
     transform="matrix(2,0,0,2,8,8)"
     id="g20485"
     style="stroke-width:0.5">
    <path
       style="fill:#ececec;fill-opacity:1;stroke-width:0.5"
       class="ColorScheme-Text"
       d="M 4,0 C 3,0 3,1 3,1 v 9 c 0,1 1,1 1,1 h 8 c 1,0 1,-1 1,-1 V 1 C 13,0 12,0 12,0 Z m 1,2 h 6 V 4 H 5 Z m 5,5 c 0.552285,0 1,0.4477153 1,1 0,0.5522847 -0.447715,1 -1,1 C 9.4477153,9 9,8.5522847 9,8 9,7.4477153 9.4477153,7 10,7 Z m -3,5 v 2 H 5 v 2 h 6 V 14 H 9 v -2 z m -6,2 c -1,0 -1,1 -1,1 0,0 0,1 1,1 h 3 v -2 z m 11,0 v 2 h 3 c 1,0 1,-1 1,-1 0,0 0,-1 -1,-1 z"
       id="path20483" />
  </g>
</svg>
