<svg height="48" width="48" xmlns="http://www.w3.org/2000/svg">
 <path d="m4 36v-28c0-1.108.8988-2.1224 2-2h16l4 4h16.103s1.8975 0 1.8975 2v24c0 1.108-.892 2-2 2h-36c-1.108 0-2-.892-2-2z" fill="#86460b"/>
 <path d="m44 40v-28c0-1.108-.89878-2.1224-2-2h-16l-4 4h-16c-2 0-2 1.9167-2 1.9167v24.083c0 1.108.892 2 2 2h36c1.108 0 2-.892 2-2z" fill="#6ba4e7"/>
 <path d="m6 6c-1.108 0-2 .892-2 2v1c0-1.108.892-2 2-2h16l4 4v-1l-4-4z" fill="#ffffff" opacity=".1"/>
 <path d="m26 10l-4 4h-16c-2 0-2 1.9062-2 1.9062v1s0-1.906 2-1.906h16l4-4h16c1.1012-.1224 2 .892 2 2v-1c0-1.108-.89878-2.1224-2-2h-16z" fill="#ffffff" opacity=".1"/>
 <path d="m25 10l-3 3h-16c-2 0-2 1.9062-2 1.9062v1s0-1.906 2-1.906h16l3.5-3.5z" opacity=".1"/>
 <path d="m4 38.989v1.006c0 1.108.892 2 2 2h36c1.108 0 2-.892 2-2v-1.0059c0 1.108-.892 2-2 2h-36c-1.108 0-2-.892-2-2z" opacity=".3"/>
 <path d="m35.641 24c-2.7346 0-3.2476 4.1551-1.709 4.1551 1.538 0 4.444-4.155 1.709-4.155zm-4.2121.63926c-.04308-.00016-.0899.004-.13838.009-1.5496.19573-1.0043 2.8184-.17931 2.8672.7988.0477 1.6727-2.8714.31715-2.876zm-2.687.9682c-.09481-.006-.19976.012-.3166.0598-1.2456.51147-.189 2.6228.5083 2.4808.63291-.12861.72364-2.4813-.19169-2.5408zm-2.0331 1.7261c-.10826-.003-.22506.0343-.34999.12733-.99701.7441.33546 2.5417.92211 2.263.51315-.24414.18577-2.3629-.57227-2.3903zm5.8886 1.7161c-2.1603-.03715-5.0104 1.0592-5.4966 3.2614-.526 2.384 2.168 5.69 4.977 5.69 1.3822 0 2.9764-1.2632 3.2749-2.8629.22777-1.2197-2.6808-.7309-2.5764.0761.12546.9675-.70151 1.4458-1.5113.82217-2.5777-1.9855 4.2681-2.9763 3.8165-5.6888-.14054-.84441-1.1883-1.2744-2.4845-1.2966z" opacity=".2"/>
 <path d="m35.641 23c-2.7346 0-3.2476 4.1551-1.709 4.1551 1.538 0 4.444-4.155 1.709-4.155zm-4.2121.63926c-.04308-.00016-.0899.004-.13838.009-1.5496.19573-1.0043 2.8184-.17931 2.8672.7988.0477 1.6727-2.8714.31715-2.876zm-2.687.9682c-.09481-.006-.19976.012-.3166.0598-1.2456.51147-.189 2.6228.5083 2.4808.63291-.12861.72364-2.4813-.19169-2.5408zm-2.0331 1.7261c-.10826-.003-.22506.0343-.34999.12733-.99701.7441.33546 2.5417.92211 2.263.51315-.24414.18577-2.3629-.57227-2.3903zm5.8886 1.7161c-2.1603-.03715-5.0104 1.0592-5.4966 3.2614-.526 2.384 2.168 5.69 4.977 5.69 1.3822 0 2.9764-1.2632 3.2749-2.8629.22777-1.2197-2.6808-.7309-2.5764.0761.12546.9675-.70151 1.4458-1.5113.82217-2.5777-1.9855 4.2681-2.9763 3.8165-5.6888-.14054-.84441-1.1883-1.2744-2.4845-1.2966z" fill="#ffffff"/>
</svg>
