<svg height="48" width="48" xmlns="http://www.w3.org/2000/svg">
 <path d="m4 36v-28c0-1.108.8988-2.1224 2-2h16l4 4h16.103s1.8975 0 1.8975 2v24c0 1.108-.892 2-2 2h-36c-1.108 0-2-.892-2-2z" fill="#86460b"/>
 <path d="m44 40v-28c0-1.108-.89878-2.1224-2-2h-16l-4 4h-16c-2 0-2 1.9167-2 1.9167v24.083c0 1.108.892 2 2 2h36c1.108 0 2-.892 2-2z" fill="#6ba4e7"/>
 <path d="m6 6c-1.108 0-2 .892-2 2v1c0-1.108.892-2 2-2h16l4 4v-1l-4-4z" fill="#ffffff" opacity=".1"/>
 <path d="m26 10l-4 4h-16c-2 0-2 1.9062-2 1.9062v1s0-1.906 2-1.906h16l4-4h16c1.1012-.1224 2 .892 2 2v-1c0-1.108-.89878-2.1224-2-2h-16z" fill="#ffffff" opacity=".1"/>
 <path d="m25 10l-3 3h-16c-2 0-2 1.9062-2 1.9062v1s0-1.906 2-1.906h16l3.5-3.5z" opacity=".1"/>
 <path d="m4 38.989v1.006c0 1.108.892 2 2 2h36c1.108 0 2-.892 2-2v-1.0059c0 1.108-.892 2-2 2h-36c-1.108 0-2-.892-2-2z" opacity=".3"/>
 <path d="m36.479 27c-1.3372 0-2.5013.72459-3.0977 1.8008 0 0-.96513 1.903-1.6992 2.6641-.33332.34555-.9185.70123-1.291.92188l1.3809.80469c.06752.03911.12514.08555.18359.13281.01404.01135.03142.01752.04492.0293.42638.2902.71289.77683.71289 1.3242 0 .8876-.73322 1.6074-1.6387 1.6074-.48678 0-.91458-.22054-1.2148-.55078l-1.1074-.63868c.202 1.08 1.161 1.904 2.321 1.904.57605 0 1.0914-.21559 1.502-.55078l.01563.01563.15234-.14844s1.1412-1.3854 1.9121-1.8164c.71551-.40001 2.3828-.64062 2.3828-.64062.2835-.04428.54802-.11623.80469-.22266l.12305-.0293-.01563-.01563c1.209-.546 2.049-1.747 2.049-3.138 0-1.907-1.576-3.453-3.521-3.453zm0 1.0723c1.3414 0 2.4277 1.0659 2.4277 2.3809s-1.0863 2.3809-2.4277 2.3809-2.4297-1.0659-2.4297-2.3809 1.0883-2.3809 2.4297-2.3809zm0 .44531a1.9734 1.9345 0 0 0 -1.9746 1.9355 1.9734 1.9345 0 0 0 1.9746 1.9336 1.9734 1.9345 0 0 0 1.9727-1.9336 1.9734 1.9345 0 0 0 -1.9727-1.9355zm-12.023.625c-.289.877-.448 1.816-.456 2.784l6.3008 3.7949c.66983.38799 1.5157.18442 1.8965-.44726.38076-.63168.15421-1.4421-.51562-1.8301l-6.9688-4.1816c-.08373-.0485-.16984-.08861-.25781-.11914z" opacity=".2"/>
 <path d="m36.479 26c-1.3372 0-2.5013.72459-3.0977 1.8008 0 0-.96513 1.903-1.6992 2.6641-.33332.34555-.9185.70123-1.291.92188l1.3809.80469c.06752.03911.12514.08555.18359.13281.01404.01135.03142.01752.04492.0293.42638.2902.71289.77683.71289 1.3242 0 .8876-.73322 1.6074-1.6387 1.6074-.48678 0-.91458-.22054-1.2148-.55078l-1.108-.639c.203 1.08 1.162 1.904 2.322 1.904.57605 0 1.0914-.21559 1.502-.55078l.01563.01563.15234-.14844s1.1412-1.3854 1.9121-1.8164c.71551-.40001 2.3828-.64062 2.3828-.64062.2835-.04428.54802-.11623.80469-.22266l.12305-.0293-.01563-.01563c1.209-.546 2.049-1.747 2.049-3.138 0-1.907-1.576-3.453-3.521-3.453zm0 1.0723c1.3414 0 2.4277 1.0659 2.4277 2.3809s-1.0863 2.3809-2.4277 2.3809-2.4297-1.0659-2.4297-2.3809 1.0883-2.3809 2.4297-2.3809zm0 .44531a1.9734 1.9345 0 0 0 -1.9746 1.9355 1.9734 1.9345 0 0 0 1.9746 1.9336 1.9734 1.9345 0 0 0 1.9727-1.9336 1.9734 1.9345 0 0 0 -1.9727-1.9355zm-12.023.625c-.289.877-.448 1.816-.456 2.784l6.3008 3.7949c.66983.38799 1.5157.18442 1.8965-.44726.38076-.63168.15421-1.4421-.51562-1.8301l-6.9688-4.1816c-.08373-.0485-.16984-.08861-.25781-.11914z" fill="#ffffff"/>
</svg>
