<svg height="48" width="48" xmlns="http://www.w3.org/2000/svg">
 <path d="m4 36v-28c0-1.108.8988-2.1224 2-2h16l4 4h16.103s1.8975 0 1.8975 2v24c0 1.108-.892 2-2 2h-36c-1.108 0-2-.892-2-2z" fill="#86460b"/>
 <path d="m44 40v-28c0-1.108-.89878-2.1224-2-2h-16l-4 4h-16c-2 0-2 1.9167-2 1.9167v24.083c0 1.108.892 2 2 2h36c1.108 0 2-.892 2-2z" fill="#6ba4e7"/>
 <path d="m6 6c-1.108 0-2 .892-2 2v1c0-1.108.892-2 2-2h16l4 4v-1l-4-4z" fill="#ffffff" opacity=".1"/>
 <path d="m26 10l-4 4h-16c-2 0-2 1.9062-2 1.9062v1s0-1.906 2-1.906h16l4-4h16c1.1012-.1224 2 .892 2 2v-1c0-1.108-.89878-2.1224-2-2h-16z" fill="#ffffff" opacity=".1"/>
 <path d="m25 10l-3 3h-16c-2 0-2 1.9062-2 1.9062v1s0-1.906 2-1.906h16l3.5-3.5z" opacity=".1"/>
 <path d="m4 38.989v1.006c0 1.108.892 2 2 2h36c1.108 0 2-.892 2-2v-1.0059c0 1.108-.892 2-2 2h-36c-1.108 0-2-.892-2-2z" opacity=".3"/>
 <path d="m33 27c-1.5032 0-2.8787.84595-3.5606 2.1856-.298-.122-.617-.185-.939-.186-1.25 0-2.308.927-2.475 2.166-1.21.416-2.024 1.554-2.025 2.834 0 1.6569 1.3432 3 3 3h9c1.6568 0 3-1.3431 3-3-.001-1.2733-.8062-2.407-2.0078-2.8281.004-.057.006-.11458.008-.17188 0-2.2091-1.7909-4-4-4zm0 1.998v.002c1.1266 0 1.9956.87019 1.998 1.9961-.00066.014-.00096.029-.002.043a2.0002 2.0002 0 0 0 1.334 2.0215c.4074.1427.66953.5097.66997.9414-.001.575-.42467.99805-1 .99805h-9c-.57506 0-.99666-.42345-.99805-.99805.002-.4327.26419-.80256.67383-.94336a2.0002 2.0002 0 0 0 1.332-1.625c.035-.263.23-.433.492-.433.063.0007.12511.0112.18359.0352a2.0002 2.0002 0 0 0 2.5391-.94141c.34307-.674 1.0244-1.0957 1.7773-1.0957z" opacity=".2"/>
 <path d="m33 26c-1.5032 0-2.8787.84595-3.5606 2.1856-.298-.122-.617-.185-.939-.186-1.25 0-2.308.927-2.475 2.166-1.21.416-2.024 1.554-2.025 2.834 0 1.6569 1.3432 3 3 3h9c1.6568 0 3-1.3431 3-3-.001-1.2733-.8062-2.407-2.0078-2.8281.004-.057.006-.11458.008-.17188 0-2.2091-1.7909-4-4-4zm0 1.998v.002c1.1266 0 1.9956.87019 1.998 1.9961-.00066.014-.00096.029-.002.043a2.0002 2.0002 0 0 0 1.334 2.0215c.4074.1427.66953.5097.66997.9414-.001.575-.42467.99805-1 .99805h-9c-.57506 0-.99666-.42345-.99805-.99805.002-.4327.26419-.80256.67383-.94336a2.0002 2.0002 0 0 0 1.332-1.625c.035-.263.23-.433.492-.433.063.0007.12511.0112.18359.0352a2.0002 2.0002 0 0 0 2.5391-.94141c.34307-.674 1.0244-1.0957 1.7773-1.0957z" fill="#ffffff"/>
</svg>
