<svg height="48" width="48" xmlns="http://www.w3.org/2000/svg">
 <path d="m4 36v-28c0-1.108.8988-2.1224 2-2h16l4 4h16.103s1.8975 0 1.8975 2v24c0 1.108-.892 2-2 2h-36c-1.108 0-2-.892-2-2z" fill="#86460b"/>
 <path d="m44 40v-28c0-1.108-.89878-2.1224-2-2h-16l-4 4h-16c-2 0-2 1.9167-2 1.9167v24.083c0 1.108.892 2 2 2h36c1.108 0 2-.892 2-2z" fill="#6ba4e7"/>
 <path d="m6 6c-1.108 0-2 .892-2 2v1c0-1.108.892-2 2-2h16l4 4v-1l-4-4z" fill="#ffffff" opacity=".1"/>
 <path d="m26 10l-4 4h-16c-2 0-2 1.9062-2 1.9062v1s0-1.906 2-1.906h16l4-4h16c1.1012-.1224 2 .892 2 2v-1c0-1.108-.89878-2.1224-2-2h-16z" fill="#ffffff" opacity=".1"/>
 <path d="m25 10l-3 3h-16c-2 0-2 1.9062-2 1.9062v1s0-1.906 2-1.906h16l3.5-3.5z" opacity=".1"/>
 <path d="m4 38.989v1.006c0 1.108.892 2 2 2h36c1.108 0 2-.892 2-2v-1.0059c0 1.108-.892 2-2 2h-36c-1.108 0-2-.892-2-2z" opacity=".3"/>
 <path d="m33 24c-3.866 0-7 3.134-7 7s3.134 7 7 7 7-3.134 7-7-3.134-7-7-7zm-.5 1.9375c.0669-.007.15125.004.21875 0 .008.032-.0487.14587-.125.3125-.48586 1.0614-.51342 2.3044-.0625 2.9688.0816.12046.15625.2351.15625.25s-.088.0312-.1875.0312c-.23358 0-.45462-.14236-.90625-.49999-.201-.159-.462-.292-.563-.312-.158-.032-.201-.018-.406.187-.191.191-.25.294-.25.469 0 .66294.78708 1.1899 2.25 1.5 1.9867.42107 2.4764.79912 2.5312 1.8438.0688 1.31-.6286 2.2978-2.1562 3.0625-.18233.0913-.2985.12675-.375.15625-.0339-.003-.0599.003-.0937 0-.013-.0405-.0312-.13446-.0312-.3125 0-.69578-.27424-1.412-.68749-1.8125-.11093-.10752-.42153-.33535-.68751-.5-.26597-.16464-.53395-.3559-.59375-.4375-.0991-.13541-.10734-.2186-.0312-.46875.13876-.45687.30391-.71133.62499-1 .16833-.15134.33771-.27825.375-.28125.0373-.003-.21515-.0788-.59375-.15625-.37858-.0776-.93237-.24012-1.2187-.34375-.52358-.18945-1.2305-.58716-1.5-.875-.0114-.0122-.0213-.0204-.0312-.0312.38613-1.5381 1.4697-2.7987 2.9062-3.4062.30057-.12713.61042-.21435.9375-.28125.16292-.0333.33178-.0454.5-.0625zm4.6875 2.3438c.11745.0726.56091 1.032.6875 1.5.16344.60419.15161 1.6498 0 2.25-.0577.22844-.13165.44215-.15625.46875s-.11381-.12653-.21875-.3125c-.10495-.18594-.44016-.58105-.71875-.875-.80414-.84853-.93059-1.2916-.59375-1.9688.16987-.34149.9091-1.1186 1-1.0625z" opacity=".2"/>
 <path d="m33 23c-3.866 0-7 3.134-7 7s3.134 7 7 7 7-3.134 7-7-3.134-7-7-7zm-.5 1.9375c.0669-.007.15125.004.21875 0 .008.032-.0487.14587-.125.3125-.48586 1.0614-.51342 2.3044-.0625 2.9688.0816.12046.15625.2351.15625.25s-.088.0312-.1875.0312c-.23358 0-.45462-.14236-.90625-.49999-.201-.159-.462-.292-.563-.312-.158-.032-.201-.018-.406.187-.191.191-.25.294-.25.469 0 .66294.78708 1.1899 2.25 1.5 1.9867.42107 2.4764.79912 2.5312 1.8438.0688 1.31-.6286 2.2978-2.1562 3.0625-.18233.0913-.2985.12675-.375.15625-.0339-.003-.0599.003-.0937 0-.013-.0405-.0312-.13446-.0312-.3125 0-.69578-.27424-1.412-.68749-1.8125-.11093-.10752-.42153-.33535-.68751-.5-.26597-.16464-.53395-.3559-.59375-.4375-.0991-.13541-.10734-.2186-.0312-.46875.13876-.45687.30391-.71133.62499-1 .16833-.15134.33771-.27825.375-.28125.0373-.003-.21515-.0788-.59375-.15625-.37858-.0776-.93237-.24012-1.2187-.34375-.52358-.18945-1.2305-.58716-1.5-.875-.0114-.0122-.0213-.0204-.0312-.0312.38613-1.5381 1.4697-2.7987 2.9062-3.4062.30057-.12713.61042-.21435.9375-.28125.16292-.0333.33178-.0454.5-.0625zm4.6875 2.3438c.11745.0726.56091 1.032.6875 1.5.16344.60419.15161 1.6498 0 2.25-.0577.22844-.13165.44215-.15625.46875s-.11381-.12653-.21875-.3125c-.10495-.18594-.44016-.58105-.71875-.875-.80414-.84853-.93059-1.2916-.59375-1.9688.16987-.34149.9091-1.1186 1-1.0625z" fill="#ffffff"/>
</svg>
