<svg height="48" width="48" xmlns="http://www.w3.org/2000/svg">
 <path d="m4 36v-28c0-1.108.8988-2.1224 2-2h16l4 4h16.103s1.8975 0 1.8975 2v24c0 1.108-.892 2-2 2h-36c-1.108 0-2-.892-2-2z" fill="#86460b"/>
 <path d="m44 40v-28c0-1.108-.89878-2.1224-2-2h-16l-4 4h-16c-2 0-2 1.9167-2 1.9167v24.083c0 1.108.892 2 2 2h36c1.108 0 2-.892 2-2z" fill="#6ba4e7"/>
 <path d="m6 6c-1.108 0-2 .892-2 2v1c0-1.108.892-2 2-2h16l4 4v-1l-4-4z" fill="#ffffff" opacity=".1"/>
 <path d="m26 10l-4 4h-16c-2 0-2 1.9062-2 1.9062v1s0-1.906 2-1.906h16l4-4h16c1.1012-.1224 2 .892 2 2v-1c0-1.108-.89878-2.1224-2-2h-16z" fill="#ffffff" opacity=".1"/>
 <path d="m25 10l-3 3h-16c-2 0-2 1.9062-2 1.9062v1s0-1.906 2-1.906h16l3.5-3.5z" opacity=".1"/>
 <path d="m4 38.989v1.006c0 1.108.892 2 2 2h36c1.108 0 2-.892 2-2v-1.0059c0 1.108-.892 2-2 2h-36c-1.108 0-2-.892-2-2z" opacity=".3"/>
 <path d="m33 24c-3.866 0-7 3.1341-7 7 0 3.866 3.134 7 7 7s7-3.134 7-7c0-3.8659-3.134-7-7-7zm-1 1.9961h2v6h-1-1zm1 7c .55229 0 1 .44771 1 1s-.44771 1-1 1-1-.44771-1-1 .44771-1 1-1z" opacity=".2"/>
 <path d="m33 23c-3.866 0-7 3.1341-7 7 0 3.866 3.134 7 7 7s7-3.134 7-7c0-3.8659-3.134-7-7-7zm-1 1.9961h2v6h-1-1zm1 7c .55229 0 1 .44771 1 1s-.44771 1-1 1-1-.44771-1-1 .44771-1 1-1z" fill="#ffffff"/>
</svg>
