<svg height="48" width="48" xmlns="http://www.w3.org/2000/svg">
 <path d="m4 36v-28c0-1.108.8988-2.1224 2-2h16l4 4h16.103s1.8975 0 1.8975 2v24c0 1.108-.892 2-2 2h-36c-1.108 0-2-.892-2-2z" fill="#86460b"/>
 <path d="m44 40v-28c0-1.108-.89878-2.1224-2-2h-16l-4 4h-16c-2 0-2 1.9167-2 1.9167v24.083c0 1.108.892 2 2 2h36c1.108 0 2-.892 2-2z" fill="#6ba4e7"/>
 <path d="m6 6c-1.108 0-2 .892-2 2v1c0-1.108.892-2 2-2h16l4 4v-1l-4-4z" fill="#ffffff" opacity=".1"/>
 <path d="m26 10l-4 4h-16c-2 0-2 1.9062-2 1.9062v1s0-1.906 2-1.906h16l4-4h16c1.1012-.1224 2 .892 2 2v-1c0-1.108-.89878-2.1224-2-2h-16z" fill="#ffffff" opacity=".1"/>
 <path d="m25 10l-3 3h-16c-2 0-2 1.9062-2 1.9062v1s0-1.906 2-1.906h16l3.5-3.5z" opacity=".1"/>
 <path d="m4 38.989v1.006c0 1.108.892 2 2 2h36c1.108 0 2-.892 2-2v-1.0059c0 1.108-.892 2-2 2h-36c-1.108 0-2-.892-2-2z" opacity=".3"/>
 <path d="m38.061 27.649c-.6259-1.0755-1.475-1.9269-2.5473-2.5546-1.0726-.62765-2.2435-.94142-3.5135-.94142-1.2699 0-2.4412.31388-3.5135.94142-1.0725.62765-1.9216 1.4791-2.5475 2.5546-.626 1.075-.939 2.249-.939 3.523 0 1.5295.44501 2.9049 1.3353 4.1266.89013 1.2216 2.04 2.067 3.4497 2.5362.16411.03052.2856.0091.36458-.06384.07898-.07314.11847-.16457.11847-.27417 0-.01829-.0015-.18274-.0045-.49348-.0032-.31085-.0045-.58199-.0045-.81331l-.20964.03634c-.13368.02459-.30227.035-.50586.03197-.20349-.0027-.41469-.02423-.63339-.06394-.21882-.03949-.4223-.1308-.61069-.27394-.18827-.14326-.32195-.33071-.40094-.56214l-.09116-.21033c-.06074-.14-.15639-.29549-.28705-.466-.13066-.17063-.26278-.2864-.39646-.34731l-.06377-.04566c-.04251-.03052-.082-.0672-.11847-.10982-.03647-.04263-.06377-.08526-.082-.128-.01823-.04263-.0032-.07774.04554-.10523.04866-.02747.1367-.04095.26434-.04095l.18223.02737c.12149.02434.27184.09737.45116.21931.17922.12183.32655.28023.44199.47508.13984.24994.30831.44031.50587.57134.19745.13102.39646.19643.59692.19643.20047 0 .37364-.01524.51952-.04565.14577-.0304.28247-.07618.41011-.13709.05471-.40834.2036-.72211.44658-.94142-.34634-.03658-.65767-.09154-.93421-.16457-.27642-.07314-.56202-.19194-.85668-.35662-.29477-.16445-.53931-.36862-.73374-.61227-.19443-.24377-.35395-.56371-.47846-.9597-.12451-.39611-.18682-.85302-.18682-1.371 0-.73736.24007-1.3649.72009-1.8828-.22486-.5544-.2036-1.1759.06377-1.8644.17619-.05486.43752-.01371.78386.1234.34634.13708.59995.25454.76104.35191s.29018.17983.3874.2468c.56516-.1584 1.1484-.2376 1.75-.2376.60152 0 1.1849.0792 1.7502.2376l.34634-.21931c.23683-.14628.5165-.28034.83834-.40217.32207-.12183.56829-.15537.73844-.10051.27341.68856.29768 1.31.07283 1.8644.48003.51794.7201 1.1456.7201 1.8828 0 .51794-.06243.97631-.18682 1.3755-.12462.39925-.28549.71896-.48293.9597-.19756.24074-.44367.44334-.73833.6078-.29477.16457-.58037.28337-.8568.35651-.27654.07314-.58786.12811-.9342.16468.31591.27417.47387.70674.47387 1.2978v1.9283c0 .1096.03804.20103.11399.27406.07596.07303.19588.09446.35999.06394 1.4098-.46914 2.5596-1.3145 3.4498-2.5363.89013-1.2215 1.3353-2.597 1.3353-4.1266-.0003-1.2731-.31345-2.4474-.93913-3.5229z" opacity=".2"/>
 <path d="m38.061 26.649c-.6259-1.0755-1.475-1.9269-2.5473-2.5546-1.0726-.62765-2.2435-.94142-3.5135-.94142-1.2699 0-2.4412.31388-3.5135.94142-1.0725.62765-1.9216 1.4791-2.5475 2.5546-.626 1.075-.939 2.249-.939 3.523 0 1.5295.44501 2.9049 1.3353 4.1266.89013 1.2216 2.04 2.067 3.4497 2.5362.16411.03052.2856.0091.36458-.06384.07898-.07314.11847-.16457.11847-.27417 0-.01829-.0015-.18274-.0045-.49348-.0032-.31085-.0045-.58199-.0045-.81331l-.20964.03634c-.13368.02459-.30227.035-.50586.03197-.20349-.0027-.41469-.02423-.63339-.06394-.21882-.03949-.4223-.1308-.61069-.27394-.18827-.14326-.32195-.33071-.40094-.56214l-.09116-.21033c-.06074-.14-.15639-.29549-.28705-.466-.13066-.17063-.26278-.2864-.39646-.34731l-.06377-.04566c-.04251-.03052-.082-.0672-.11847-.10982-.03647-.04263-.06377-.08526-.082-.128-.01823-.04263-.0032-.07774.04554-.10523.04866-.02747.1367-.04095.26434-.04095l.18223.02737c.12149.02434.27184.09737.45116.21931.17922.12183.32655.28023.44199.47508.13984.24994.30831.44031.50587.57134.19745.13102.39646.19643.59692.19643.20047 0 .37364-.01524.51952-.04565.14577-.0304.28247-.07618.41011-.13709.05471-.40834.2036-.72211.44658-.94142-.34634-.03658-.65767-.09154-.93421-.16457-.27642-.07314-.56202-.19194-.85668-.35662-.29477-.16445-.53931-.36862-.73374-.61227-.19443-.24377-.35395-.56371-.47846-.9597-.12451-.39611-.18682-.85302-.18682-1.371 0-.73736.24007-1.3649.72009-1.8828-.22486-.5544-.2036-1.1759.06377-1.8644.17619-.05486.43752-.01371.78386.1234.34634.13708.59995.25454.76104.35191s.29018.17983.3874.2468c.56516-.1584 1.1484-.2376 1.75-.2376.60152 0 1.1849.0792 1.7502.2376l.34634-.21931c.23683-.14628.5165-.28034.83834-.40217.32207-.12183.56829-.15537.73844-.10051.27341.68856.29768 1.31.07283 1.8644.48003.51794.7201 1.1456.7201 1.8828 0 .51794-.06243.97631-.18682 1.3755-.12462.39925-.28549.71896-.48293.9597-.19756.24074-.44367.44334-.73833.6078-.29477.16457-.58037.28337-.8568.35651-.27654.07314-.58786.12811-.9342.16468.31591.27417.47387.70674.47387 1.2978v1.9283c0 .1096.03804.20103.11399.27406.07596.07303.19588.09446.35999.06394 1.4098-.46914 2.5596-1.3145 3.4498-2.5363.89013-1.2215 1.3353-2.597 1.3353-4.1266-.0003-1.2731-.31345-2.4474-.93913-3.5229z" fill="#ffffff"/>
</svg>
