<svg height="48" width="48" xmlns="http://www.w3.org/2000/svg">
 <path d="m4 36v-28c0-1.108.8988-2.1224 2-2h16l4 4h16.103s1.8975 0 1.8975 2v24c0 1.108-.892 2-2 2h-36c-1.108 0-2-.892-2-2z" fill="#86460b"/>
 <path d="m44 40v-28c0-1.108-.89878-2.1224-2-2h-16l-4 4h-16c-2 0-2 1.9167-2 1.9167v24.083c0 1.108.892 2 2 2h36c1.108 0 2-.892 2-2z" fill="#6ba4e7"/>
 <path d="m6 6c-1.108 0-2 .892-2 2v1c0-1.108.892-2 2-2h16l4 4v-1l-4-4z" fill="#ffffff" opacity=".1"/>
 <path d="m26 10l-4 4h-16c-2 0-2 1.9062-2 1.9062v1s0-1.906 2-1.906h16l4-4h16c1.1012-.1224 2 .892 2 2v-1c0-1.108-.89878-2.1224-2-2h-16z" fill="#ffffff" opacity=".1"/>
 <path d="m25 10l-3 3h-16c-2 0-2 1.9062-2 1.9062v1s0-1.906 2-1.906h16l3.5-3.5z" opacity=".1"/>
 <path d="m4 38.989v1.006c0 1.108.892 2 2 2h36c1.108 0 2-.892 2-2v-1.0059c0 1.108-.892 2-2 2h-36c-1.108 0-2-.892-2-2z" opacity=".3"/>
 <g fill="#ffffff" fill-opacity=".078" transform="matrix(.03969891 0 0 .03928798 24.879055 20.905964)">
<path d="m383.434 172.502c-25.336-58.241-81.998-95.648-145.861-95.648-65.309 0-125 40.928-148.514 101.827l49.5 19.117c15.672-40.617 55.469-67.894 99.014-67.894 42.02 0 79.197 24.386 96.408 62.332l-36.117 14.428 92.352 53.279 27.01-100.933z"/>
<path d="m237.573 342.101c-41.639 0-79.615-25.115-96.592-62.819l35.604-13.763-91.387-52.119-27.975 98.249 34.08-13.172c24.852 58.018 82.859 96.671 146.27 96.671 65.551 0 123.598-39.336 147.871-100.196l-49.268-19.652c-16.195 40.577-54.888 66.801-98.603 66.801z"/>
 </g>
 <g fill="#ffffff" transform="matrix(.03969891 0 0 .03928798 24.726514 20.295793)">
<path d="m383.434 172.502c-25.336-58.241-81.998-95.648-145.861-95.648-65.309 0-125 40.928-148.514 101.827l49.5 19.117c15.672-40.617 55.469-67.894 99.014-67.894 42.02 0 79.197 24.386 96.408 62.332l-36.117 14.428 92.352 53.279 27.01-100.933z"/>
<path d="m237.573 342.101c-41.639 0-79.615-25.115-96.592-62.819l35.604-13.763-91.387-52.119-27.975 98.249 34.08-13.172c24.852 58.018 82.859 96.671 146.27 96.671 65.551 0 123.598-39.336 147.871-100.196l-49.268-19.652c-16.195 40.577-54.888 66.801-98.603 66.801z"/>
 </g>
</svg>
