<svg height="48" width="48" xmlns="http://www.w3.org/2000/svg">
 <path d="m4 36v-28c0-1.108.8988-2.1224 2-2h16l4 4h16.103s1.8975 0 1.8975 2v24c0 1.108-.892 2-2 2h-36c-1.108 0-2-.892-2-2z" fill="#86460b"/>
 <path d="m44 40v-28c0-1.108-.89878-2.1224-2-2h-16l-4 4h-16c-2 0-2 1.9167-2 1.9167v24.083c0 1.108.892 2 2 2h36c1.108 0 2-.892 2-2z" fill="#6ba4e7"/>
 <path d="m6 6c-1.108 0-2 .892-2 2v1c0-1.108.892-2 2-2h16l4 4v-1l-4-4z" fill="#ffffff" opacity=".1"/>
 <path d="m26 10l-4 4h-16c-2 0-2 1.9062-2 1.9062v1s0-1.906 2-1.906h16l4-4h16c1.1012-.1224 2 .892 2 2v-1c0-1.108-.89878-2.1224-2-2h-16z" fill="#ffffff" opacity=".1"/>
 <path d="m25 10l-3 3h-16c-2 0-2 1.9062-2 1.9062v1s0-1.906 2-1.906h16l3.5-3.5z" opacity=".1"/>
 <path d="m4 38.989v1.006c0 1.108.892 2 2 2h36c1.108 0 2-.892 2-2v-1.0059c0 1.108-.892 2-2 2h-36c-1.108 0-2-.892-2-2z" opacity=".3"/>
 <path d="m36.881 30.501c-.02019-2.0263 1.6525-2.9981 1.7272-3.0463-.93984-1.3753-2.4039-1.5637-2.9256-1.5855-1.246-.12616-2.4312.73356-3.0635.73356-.63075 0-1.6065-.71491-2.6399-.69612-1.3581.02019-2.6103.78966-3.3096 2.0059-1.411 2.4484-.36134 6.0756 1.0139 8.0613.672.972 1.4733 2.0637 2.5254 2.0247 1.0132-.04044 1.3963-.65559 2.6212-.65559s1.5692.65559 2.6414.63547c1.0902-.02025 1.781-.99059 2.4483-1.9656.77169-1.1276 1.0894-2.2193 1.1082-2.2754-.02422-.01106-2.126-.81622-2.147-3.2365zm-2.0146-5.9464c.559-.677.936-1.617.833-2.555-.80434.03275-1.7793.53578-2.3564 1.2117-.51781.59962-.97109 1.5567-.84962 2.4756.89794.07006 1.8145-.45631 2.3735-1.1322z" opacity=".2"/>
 <path d="m36.881 29.501c-.02019-2.0263 1.6525-2.9981 1.7272-3.0463-.93984-1.3753-2.4039-1.5637-2.9256-1.5855-1.246-.12616-2.4312.73356-3.0635.73356-.63075 0-1.6065-.71491-2.6399-.69612-1.3581.02019-2.6103.78966-3.3096 2.0059-1.411 2.4484-.36134 6.0756 1.0139 8.0613.672.972 1.4733 2.0637 2.5254 2.0247 1.0132-.04044 1.3963-.65559 2.6212-.65559s1.5692.65559 2.6414.63547c1.0902-.02025 1.781-.99059 2.4483-1.9656.77169-1.1276 1.0894-2.2193 1.1082-2.2754-.02422-.01106-2.126-.81622-2.147-3.2365zm-2.0146-5.9464c.559-.677.936-1.617.833-2.555-.80434.03275-1.7793.53578-2.3564 1.2117-.51781.59962-.97109 1.5567-.84962 2.4756.89794.07006 1.8145-.45631 2.3735-1.1322z" fill="#ffffff"/>
</svg>
