<svg height="48" width="48" xmlns="http://www.w3.org/2000/svg">
 <path d="m4 36v-28c0-1.108.8988-2.1224 2-2h16l4 4h16.103s1.8975 0 1.8975 2v24c0 1.108-.892 2-2 2h-36c-1.108 0-2-.892-2-2z" fill="#86460b"/>
 <path d="m44 40v-28c0-1.108-.89878-2.1224-2-2h-16l-4 4h-16c-2 0-2 1.9167-2 1.9167v24.083c0 1.108.892 2 2 2h36c1.108 0 2-.892 2-2z" fill="#6ba4e7"/>
 <path d="m6 6c-1.108 0-2 .892-2 2v1c0-1.108.892-2 2-2h16l4 4v-1l-4-4z" fill="#ffffff" opacity=".1"/>
 <path d="m26 10l-4 4h-16c-2 0-2 1.9062-2 1.9062v1s0-1.906 2-1.906h16l4-4h16c1.1012-.1224 2 .892 2 2v-1c0-1.108-.89878-2.1224-2-2h-16z" fill="#ffffff" opacity=".1"/>
 <path d="m25 10l-3 3h-16c-2 0-2 1.9062-2 1.9062v1s0-1.906 2-1.906h16l3.5-3.5z" opacity=".1"/>
 <path d="m4 38.989v1.006c0 1.108.892 2 2 2h36c1.108 0 2-.892 2-2v-1.0059c0 1.108-.892 2-2 2h-36c-1.108 0-2-.892-2-2z" opacity=".3"/>
 <path d="m31.994 24c-1.87 0-3.3939 1.5344-3.4492 3.4512-.04593.01147-.09154.02988-.13477.05273-.43005.22704-.54034.93616-.24609 1.5918.23671.52745.65752.85386 1.0391.84375.28722 1.7528 1.4304 3.0605 2.791 3.0605.0041 0 .0076.00002.01172 0 1.3606 0 2.5038-1.3077 2.791-3.0605.38154.01009.80235-.31629 1.0391-.84375.29424-.65564.18394-1.3648-.24609-1.5918-.04328-.02285-.08878-.04126-.13477-.05273-.05532-1.9167-1.5792-3.4512-3.4492-3.4512-.0041-.00002-.0076 0-.01172 0zm2.4004 9c-.28889.70052-1.2741 1.2266-2.4492 1.2266-1.1698 0-2.1456-.51914-2.4395-1.2148-2.4691.25815-4.2682.88953-4.4844 1.6367-.003.0071.002.01631 0 .02344-.007.02689-.0068.05082-.0098.07813-.001.01233-.01172.02057-.01172.0332-.00009.0041 0 .0058 0 .0098v1.8496c.001.197.157.357.351.357h13.301c.1939 0 .34961-.15989.34961-.35742v-1.8496c0-.0082.00035-.01334 0-.02149-.002-.0433-.0208-.08046-.0332-.12305-.22075-.75621-2.0584-1.3965-4.5723-1.6484z" opacity=".2"/>
 <path d="m31.994 23c-1.87 0-3.3939 1.5344-3.4492 3.4512-.04593.01147-.09154.02988-.13477.05273-.43005.22704-.54034.93616-.24609 1.5918.23671.52745.65752.85386 1.0391.84375.28722 1.7528 1.4304 3.0605 2.791 3.0605.0041 0 .0076.00002.01172 0 1.3606 0 2.5038-1.3077 2.791-3.0605.38154.01009.80235-.31629 1.0391-.84375.29424-.65564.18394-1.3648-.24609-1.5918-.04328-.02285-.08878-.04126-.13477-.05273-.05532-1.9167-1.5792-3.4512-3.4492-3.4512-.0041-.00002-.0076 0-.01172 0zm2.4004 9c-.28889.70052-1.2741 1.2266-2.4492 1.2266-1.1698 0-2.1456-.51914-2.4395-1.2148-2.4691.25815-4.2682.88953-4.4844 1.6367-.003.0071.002.01631 0 .02344-.007.02689-.0068.05082-.0098.07813-.001.01233-.01172.02057-.01172.0332-.00009.0041 0 .0058 0 .0098v1.8496c.001.197.157.357.351.357h13.301c.1939 0 .34961-.15989.34961-.35742v-1.8496c0-.0082.00035-.01334 0-.02149-.002-.0433-.0208-.08046-.0332-.12305-.22075-.75621-2.0584-1.3965-4.5723-1.6484z" fill="#ffffff"/>
</svg>
