<svg height="48" width="48" xmlns="http://www.w3.org/2000/svg">
 <path d="m4 36v-28c0-1.108.89878-2.1224 2-2h16l4 4h16.103s1.8975 0 1.8975 2v24c0 1.108-.892 2-2 2h-36c-1.108 0-2-.892-2-2z" fill="#86460b"/>
 <path d="m44 40v-12.9585c0-1.108-.89878-2.1224-2-2h-16l-4 4h-16c-2 0-2 1.9167-2 1.9167v9.0415c0 1.108.892 2 2 2h36c1.108 0 2-.892 2-2z" fill="#6ba4e7"/>
 <path d="m4 38.989v1.006c0 1.108.892 2 2 2h36c1.108 0 2-.892 2-2v-1.0059c0 1.108-.892 2-2 2h-36c-1.108 0-2-.89201-2-2z" opacity=".3"/>
 <path d="m26 25.0405l-4 4h-16c-2 0-2 1.918-2 1.918v1c0 0 0-1.918 2-1.918h16l4-4h16c1.101-.122 2 .892 2 2v-1c0-1.108-.899-2.122-2-2z" fill="#ffffff" opacity=".1"/>
 <path d="m26 24.0815l-4 4h-16c-2 0-2 1.918-2 1.918v1c0 0 .3039796-.85804 2-1.918h16l4-4h16c1.1012-.1224 2 .892 2 2v-1c0-1.108-.89878-2.1224-2-2z" opacity=".1"/>
 <path d="m6 6c-1.1012-.1224-2 .892-2 2v1c0-1.108.8988-2.1224 2-2h16l4 4h16.104s1.896 0 1.896 2v-1c0-2-1.896-2-1.896-2h-16.104l-4-4z" fill="#ffffff" opacity=".1"/>
</svg>
