<svg height="48" width="48" xmlns="http://www.w3.org/2000/svg">
 <path d="m4 36v-28c0-1.108.8988-2.1224 2-2h16l4 4h16.103s1.8975 0 1.8975 2v24c0 1.108-.892 2-2 2h-36c-1.108 0-2-.892-2-2z" fill="#86460b"/>
 <path d="m44 40v-28c0-1.108-.89878-2.1224-2-2h-16l-4 4h-16c-2 0-2 1.9167-2 1.9167v24.083c0 1.108.892 2 2 2h36c1.108 0 2-.892 2-2z" fill="#6ba4e7"/>
 <path d="m6 6c-1.108 0-2 .892-2 2v1c0-1.108.892-2 2-2h16l4 4v-1l-4-4z" fill="#ffffff" opacity=".1"/>
 <path d="m26 10l-4 4h-16c-2 0-2 1.9062-2 1.9062v1s0-1.906 2-1.906h16l4-4h16c1.1012-.1224 2 .892 2 2v-1c0-1.108-.89878-2.1224-2-2h-16z" fill="#ffffff" opacity=".1"/>
 <path d="m25 10l-3 3h-16c-2 0-2 1.9062-2 1.9062v1s0-1.906 2-1.906h16l3.5-3.5z" opacity=".1"/>
 <path d="m4 38.989v1.006c0 1.108.892 2 2 2h36c1.108 0 2-.892 2-2v-1.0059c0 1.108-.892 2-2 2h-36c-1.108 0-2-.892-2-2z" opacity=".3"/>
 <g opacity=".2" transform="translate(0 1)">
<path d="m32.994 24c-1.87 0-3.3945 1.534-3.4498 3.4507-.04593.01147-.09074.03125-.13396.0541-.43005.22704-.53987.9345-.24562 1.5901.23671.52745.65676.85385 1.0383.84374.28722 1.7528 1.4305 3.0613 2.7911 3.0613.0041 0 .0071.00002.01123 0 1.3606 0 2.5039-1.3084 2.7911-3.0613.38154.01009.80157-.31629 1.0383-.84374.29424-.65564.18442-1.3631-.24562-1.5901-.043-.023-.088-.043-.134-.054-.055-1.917-1.58-3.451-3.45-3.451-.0041-.00002-.0071 0-.01123 0z" opacity="1"/>
<path d="m35.395 33c-.28889.70052-1.2748 1.2256-2.45 1.2256-1.1698 0-2.1452-.51878-2.439-1.2145-2.4691.25815-4.2681.89068-4.4843 1.6379-.003.0071.002.01518 0 .02231-.007.02689-.008.05073-.011.07803-.001.01233-.011.02078-.011.03341-.00009.0041 0 .0071 0 .0111v1.8496c0 .19754.1561.35656.35.35656h13.3c.1939 0 .34999-.15902.34999-.35655v-1.8496c0-.0082.00035-.01416 0-.02231-.002-.0433-.0204-.07997-.0328-.12256-.221-.756-2.058-1.397-4.572-1.649z" opacity="1"/>
 </g>
 <g fill="#ffffff">
<path d="m32.994 24c-1.87 0-3.3945 1.534-3.4498 3.4507-.04593.01147-.09074.03125-.13396.0541-.43005.22704-.53987.9345-.24562 1.5901.23671.52745.65676.85385 1.0383.84374.28722 1.7528 1.4305 3.0613 2.7911 3.0613.0041 0 .0071.00002.01123 0 1.3606 0 2.5039-1.3084 2.7911-3.0613.38154.01009.80157-.31629 1.0383-.84374.29424-.65564.18442-1.3631-.24562-1.5901-.043-.023-.088-.043-.134-.054-.055-1.917-1.58-3.451-3.45-3.451-.0041-.00002-.0071 0-.01123 0z"/>
<path d="m35.395 33c-.28889.70052-1.2748 1.2256-2.45 1.2256-1.1698 0-2.1452-.51878-2.439-1.2145-2.4691.25815-4.2681.89068-4.4843 1.6379-.003.0071.002.01518 0 .02231-.007.02689-.008.05073-.011.07803-.001.01233-.011.02078-.011.03341-.00009.0041 0 .0071 0 .0111v1.8496c0 .19754.1561.35656.35.35656h13.3c.1939 0 .34999-.15902.34999-.35655v-1.8496c0-.0082.00035-.01416 0-.02231-.002-.0433-.0204-.07997-.0328-.12256-.221-.756-2.058-1.397-4.572-1.649z"/>
 </g>
</svg>
