<svg height="48" width="48" xmlns="http://www.w3.org/2000/svg">
 <path d="m4 36v-28c0-1.108.8988-2.1224 2-2h16l4 4h16.103s1.8975 0 1.8975 2v24c0 1.108-.892 2-2 2h-36c-1.108 0-2-.892-2-2z" fill="#86460b"/>
 <path d="m44 40v-28c0-1.108-.89878-2.1224-2-2h-16l-4 4h-16c-2 0-2 1.9167-2 1.9167v24.083c0 1.108.892 2 2 2h36c1.108 0 2-.892 2-2z" fill="#6ba4e7"/>
 <path d="m6 6c-1.108 0-2 .892-2 2v1c0-1.108.892-2 2-2h16l4 4v-1l-4-4z" fill="#ffffff" opacity=".1"/>
 <path d="m26 10l-4 4h-16c-2 0-2 1.9062-2 1.9062v1s0-1.906 2-1.906h16l4-4h16c1.1012-.1224 2 .892 2 2v-1c0-1.108-.89878-2.1224-2-2h-16z" fill="#ffffff" opacity=".1"/>
 <path d="m25 10l-3 3h-16c-2 0-2 1.9062-2 1.9062v1s0-1.906 2-1.906h16l3.5-3.5z" opacity=".1"/>
 <path d="m4 38.989v1.006c0 1.108.892 2 2 2h36c1.108 0 2-.892 2-2v-1.0059c0 1.108-.892 2-2 2h-36c-1.108 0-2-.892-2-2z" opacity=".3"/>
 <path d="m32.562821 36.485192c-.191755-.01395-.208488-.01843-.112612-.03014l.112612-.01375-.12191-.0044c-.539894-.01933-1.404851-.239947-2.062872-.526133-1.356311-.589885-2.545171-1.754197-3.183311-3.117572-.307605-.657194-.561476-1.613956-.57899-2.182044l-.0038-.121911-.01541.11261c-.02655.194079-.05391-.463675-.03357-.80704.01403-.236816.02167-.280934.03357-.19394l.01541.11261.0038-.121911c.01169-.379133.184031-1.173846.358872-1.65483.22096-.607864.631386-1.329372 1.053401-1.851816.21615-.267587.652489-.701031.93215-.925967.526362-.423352 1.210712-.810873 1.825919-1.033941.482335-.174889 1.276293-.34695 1.654831-.35862l.12191-.0038-.112612-.01566c-.187025-.02601.579511-.05225.863348-.02955.164242.01313.211543.02249.137633.02724-.08466.0054-.05671.01258.11261.02879.513436.04915 1.185138.207076 1.640255.385653.886797.347952 1.543032.778131 2.229275 1.461349.834216.830536 1.369419 1.753724 1.662457 2.867625.08619.327639.1821.890045.18976 1.112789l.0039.112611.01548-.112611c.02569-.186899.05103.552656.02916.850834-.0113.154066-.02206.216176-.02599.150147-.0045-.0755-.01756-.01365-.03962.187684-.127887 1.166922-.578064 2.273217-1.30852 3.215651-.227375.293357-.717533.790929-1.017819 1.033209-.741654.598396-1.539664.99691-2.467334 1.232148-.270879.06869-.82862.158958-1.023586.165666l-.112609.0039.112609.01751.112609.01751-.127483.0038c-.07012.0021-.244665.008-.38788.01324-.143218.0052-.361744.0021-.485615-.0069zm1.099285-.368292c.537114-.07797.990261-.231154.990261-.334749 0-.02694-.06673-.126521-.148293-.221286-.551892-.641232-1.29806-.810731-2.279084-.517715-.38715.115636-1.122714.393552-1.136464.429388-.02094.05456.150867.226477.333529.333753.544281.319654 1.379737.4355 2.240051.310609zm.71004-2.013091c.36376-.181772.809828-.702506 1.574312-1.837826.220379-.327282.270891-.386587.394304-.462953.363143-.224705.510269-.328772.54954-.388704.02341-.03574.05969-.172286.08062-.303443l.03805-.238469-.05846-.06245c-.03215-.03435-.19252-.137453-.356377-.229123-.163859-.09167-.334997-.204389-.380306-.250485-.04531-.0461-.158044-.230446-.250516-.409665-.175205-.339561-.303563-.530968-.414693-.618382-.04471-.03517-.171251-.07102-.399518-.11318-.734947-.135753-1.188251-.321625-1.171521-.48037.0098-.09268-.0045-.105062-.219845-.190511-.49679-.197146-.87934-.207827-1.303746-.0364-.341216.137824-.701955.427721-.952068.765105-.340179.45888-.361145.795123-.06786 1.08841.21462.21462.488333.341287 1.200684.555639.246016.07403.475112.152819.509102.17509.186924.122478.35294.858846.445415 1.975653.05572.672955.113539.888986.278786 1.041652.0872.08056.118385.09248.248541.09499.06721.0013.154966-.02431.255546-.07458zm-6.226153-1.138382c0-.02133-.01789-.07337-.03975-.11565-.07671-.148342-.02197-.260991.301902-.621331.219511-.244219.372058-.478323.436666-.670104.06398-.189933.07141-.520901.01417-.631593-.02077-.04015-.177367-.185591-.348006-.32319-.170644-.137598-.332073-.281546-.358732-.319883-.09507-.136698-.328889-.574045-.430752-.805688-.185234-.421234-.234779-.624554-.234102-.960685.000623-.27989-.002-.294903-.04873-.287782-.02971.0045-.08726.07035-.144657.165467-.289688.480019-.456644 1.38299-.396478 2.144303.04575.578846.217029 1.339801.383025 1.701668.07729.168485.265729.413319.409752.532376.23862.19726.4557.288766.4557.192092zm10.704938-2.74554c.133335-.141926.178057-.420412.131968-.821744-.07374-.642114-.286818-1.374337-.563635-1.936868-.18664-.379284-.382443-.627679-.963749-1.222603-.391762-.400942-.677559-.634513-.863091-.705368-.165122-.06306-.339389-.02542-.691932.149463-.154558.07667-.300642.139399-.32463.139399-.03008 0-.05644-.0386-.08493-.124383-.02467-.07428-.0729-.150963-.119719-.19036-.06772-.05698-.09593-.06452-.206958-.05531-.145986.01211-.43354.174232-.822415.46369-.290869.216508-.317083.273149-.243079.525198.06038.205656.06721.315139.02183.350016-.01721.01322-.194567.08344-.394135.15604-.796732.289837-1.074582.522721-1.013312.849321.03956.210856.09764.22325.381997.0815.373926-.186398.391875-.190067.640712-.130968.369427.08774 1.04751.387879 1.391977.616132.118616.0786.216863.177106.362855.363813.62954.805116.796097.976481 1.097023 1.128681.276162.139676.621857.123977.755026-.03429.06823-.08109.0703-.105973.03287-.395548-.0066-.05142.0036-.06392.0575-.07017.05115-.0059.111761.03262.275418.175172.294427.256464.716523.599849.834699.679048.123553.0828.235957.0865.307698.01013zm-9.888501-3.5876c.20615-.09219.43099-.105907.604628-.0369.167893.06673.387084.06971.504279.0069.11107-.05957.167334-.168924.204068-.396639.02851-.176684.0356-.19021.156984-.299348.06992-.06286.240045-.181745.378046-.264174.22792-.136137 1.06495-.559145 1.232353-.622791l.06884-.02617-.06219.06673c-.0342.0367-.231099.202412-.437552.368246-.206453.16583-.44012.364213-.519258.440846-.130309.126182-.143892.149275-.143892.244657 0 .08499.01328.115846.06882.159849.158379.125492.475045.02602 2.208414-.693692.282152-.117152.52708-.230931.544285-.25284.01721-.02191.03128-.08969.03128-.150609 0-.09469-.01362-.12435-.09384-.204303-.0715-.07126-.122126-.09774-.212637-.111189-.06533-.0097-.128582-.01161-.140546-.0042-.02848.0176-.09244-.05642-.117108-.135524-.01074-.03441-.02614-.130127-.03424-.21271l-.01473-.150199-.22938-.114547c-.126161-.063-.311967-.132532-.412904-.15452-.171311-.03731-.20434-.03691-.496332.0061-1.29632.190979-2.464007.783275-3.403334 1.726296-.185806.186539-.353436.369262-.372505.406049-.03206.06186-.02877.07581.04379.185355.04316.06515.07847.144468.07847.176255 0 .05771.01853.06745.175173.09213.155933.02456.253844.01227.391021-.04907z" fill="#ffffff"/>
</svg>
