<?xml version="1.0" encoding="UTF-8" standalone="no"?>
<svg
   xmlns:dc="http://purl.org/dc/elements/1.1/"
   xmlns:cc="http://creativecommons.org/ns#"
   xmlns:rdf="http://www.w3.org/1999/02/22-rdf-syntax-ns#"
   xmlns:svg="http://www.w3.org/2000/svg"
   xmlns="http://www.w3.org/2000/svg"
   xmlns:sodipodi="http://sodipodi.sourceforge.net/DTD/sodipodi-0.dtd"
   xmlns:inkscape="http://www.inkscape.org/namespaces/inkscape"
   width="48"
   height="48"
   version="1"
   id="svg30"
   sodipodi:docname="scheduler1.svg"
   inkscape:version="0.92.5 (2060ec1f9f, 2020-04-08)">
  <metadata
     id="metadata36">
    <rdf:RDF>
      <cc:Work
         rdf:about="">
        <dc:format>image/svg+xml</dc:format>
        <dc:type
           rdf:resource="http://purl.org/dc/dcmitype/StillImage" />
        <dc:title></dc:title>
      </cc:Work>
    </rdf:RDF>
  </metadata>
  <defs
     id="defs34" />
  <sodipodi:namedview
     pagecolor="#ffffff"
     bordercolor="#666666"
     borderopacity="1"
     objecttolerance="10"
     gridtolerance="10"
     guidetolerance="10"
     inkscape:pageopacity="0"
     inkscape:pageshadow="2"
     inkscape:window-width="1920"
     inkscape:window-height="1007"
     id="namedview32"
     showgrid="false"
     inkscape:zoom="4.9166667"
     inkscape:cx="24"
     inkscape:cy="24"
     inkscape:window-x="0"
     inkscape:window-y="0"
     inkscape:window-maximized="1"
     inkscape:current-layer="g206" />
  <rect
     style="opacity:0.2"
     width="32"
     height="35"
     x="8"
     y="10"
     rx="3.171"
     ry="3.115"
     id="rect2" />
  <path
     style="fill:#989898"
     d="M 24 3 A 4 4 0 0 0 20 7 A 4 4 0 0 0 24 11 A 4 4 0 0 0 28 7 A 4 4 0 0 0 24 3 z M 24 5 A 2 2 0 0 1 26 7 A 2 2 0 0 1 24 9 A 2 2 0 0 1 22 7 A 2 2 0 0 1 24 5 z"
     id="path4" />
  <rect
     style="fill:#c48f61"
     width="32"
     height="35"
     x="8"
     y="9"
     rx="3.171"
     ry="3.115"
     id="rect6" />
  <path
     style="opacity:0.1;fill:#ffffff"
     d="M 11.171875 9 C 9.4149158 9 8 10.389649 8 12.115234 L 8 13.115234 C 8 11.389649 9.4149158 10 11.171875 10 L 36.828125 10 C 38.585084 10 40 11.389649 40 13.115234 L 40 12.115234 C 40 10.389649 38.585084 9 36.828125 9 L 11.171875 9 z"
     id="path8" />
  <rect
     style="fill:#ffffff"
     width="26"
     height="30"
     x="11"
     y="11"
     id="rect10" />
  <path
     style="fill:#989898"
     d="M 17.333984 7 C 16.595317 7 16 7.6363054 16 8.4277344 L 16 10.572266 L 16 12 L 32 12 L 32 10.572266 L 32 8.4277344 C 32 7.6363054 31.404683 7 30.666016 7 L 26 7 A 2 2 0 0 1 24 9 A 2 2 0 0 1 22 7 L 17.333984 7 z"
     id="path12" />
  <path
     style="fill:none;stroke:#5f5f5f;stroke-width:3;stroke-linecap:round"
     d="M 15.419966,26.499995 17.526319,28.007057 20.5,24.496472"
     id="path14" />
  <path
     style="fill:none;stroke:#c8c8c8;stroke-width:3;stroke-linecap:round"
     d="m 25.5,17.49985 h 7.9"
     id="path16" />
  <path
     style="fill:none;stroke:#5f5f5f;stroke-width:3;stroke-linecap:round"
     d="m 15.419966,17.499995 2.106352,1.507062 2.973681,-3.510585"
     id="path18" />
  <path
     style="fill:none;stroke:#5f5f5f;stroke-width:3;stroke-linecap:round"
     d="m 15.419966,35.500005 2.106352,1.507053 2.973681,-3.510586"
     id="path20" />
  <path
     style="fill:none;stroke:#c8c8c8;stroke-width:3;stroke-linecap:round"
     d="m 25.5,26.49985 h 7.9"
     id="path22" />
  <path
     style="fill:none;stroke:#c8c8c8;stroke-width:3;stroke-linecap:round"
     d="m 25.5,35.49985 h 7.9"
     id="path24" />
  <rect
     style="opacity:0.2"
     width="26"
     height="1"
     x="11"
     y="41"
     id="rect26" />
  <path
     style="opacity:0.1;fill:#ffffff"
     d="M 24 3 A 4 4 0 0 0 20 7 L 17.333984 7 C 16.595317 7 16 7.6363054 16 8.4277344 L 16 9.4277344 C 16 8.6363054 16.595317 8 17.333984 8 L 20 8 A 4 4 0 0 1 24 4 A 4 4 0 0 1 28 8 L 30.666016 8 C 31.404683 8 32 8.6363054 32 9.4277344 L 32 8.4277344 C 32 7.6363054 31.404683 7 30.666016 7 L 28 7 A 4 4 0 0 0 24 3 z M 25.935547 7.4960938 A 2 2 0 0 1 24 9 A 2 2 0 0 1 22.064453 7.5039062 A 2 2 0 0 0 22 8 A 2 2 0 0 0 24 10 A 2 2 0 0 0 26 8 A 2 2 0 0 0 25.935547 7.4960938 z"
     id="path28" />
  <g
     id="g206"
     transform="translate(114.94916,35.110169)">
    <path
       id="path180"
       d="M 24,4 A 20,20 0 0 0 4,24 20,20 0 0 0 4.0215,24.582 20,20 0 0 1 23.9995,5 20,20 0 0 1 43.9785,24.418 20,20 0 0 0 43.9995,24 a 20,20 0 0 0 -20,-20 z"
       style="opacity:0.1;fill:#ffffff"
       inkscape:connector-curvature="0" />
    <circle
       id="circle184"
       r="11"
       cy="1.4237288"
       cx="-79.13559"
       style="opacity:0.2" />
    <circle
       id="circle186"
       r="11"
       cy="0.62711865"
       cx="-79.338982"
       style="fill:#cd4242" />
    <path
       id="path188"
       d="m -79.135593,-5.7627119 a 1,1 0 0 0 -1,1 v 5.00000004 0.99999996 1 h 7 a 1,1 0 0 0 1,-1 1,1 0 0 0 -1,-0.99999996 h -5 V -4.7627119 a 1,1 0 0 0 -1,-1 z"
       style="fill:#ffffff"
       inkscape:connector-curvature="0" />
  </g>
</svg>
