<?xml version="1.0" encoding="UTF-8" standalone="no"?>
<svg
   xmlns:dc="http://purl.org/dc/elements/1.1/"
   xmlns:cc="http://creativecommons.org/ns#"
   xmlns:rdf="http://www.w3.org/1999/02/22-rdf-syntax-ns#"
   xmlns:svg="http://www.w3.org/2000/svg"
   xmlns="http://www.w3.org/2000/svg"
   xmlns:sodipodi="http://sodipodi.sourceforge.net/DTD/sodipodi-0.dtd"
   xmlns:inkscape="http://www.inkscape.org/namespaces/inkscape"
   width="64"
   height="64"
   version="1"
   id="svg22"
   sodipodi:docname="conky-manager2-genericV2.svg"
   inkscape:version="0.92.4 5da689c313, 2019-01-14">
  <metadata
     id="metadata28">
    <rdf:RDF>
      <cc:Work
         rdf:about="">
        <dc:format>image/svg+xml</dc:format>
        <dc:type
           rdf:resource="http://purl.org/dc/dcmitype/StillImage" />
        <dc:title></dc:title>
      </cc:Work>
    </rdf:RDF>
  </metadata>
  <defs
     id="defs26" />
  <sodipodi:namedview
     pagecolor="#ffffff"
     bordercolor="#666666"
     borderopacity="1"
     objecttolerance="10"
     gridtolerance="10"
     guidetolerance="10"
     inkscape:pageopacity="0"
     inkscape:pageshadow="2"
     inkscape:window-width="1920"
     inkscape:window-height="1003"
     id="namedview24"
     showgrid="false"
     inkscape:zoom="4.9166667"
     inkscape:cx="64.610169"
     inkscape:cy="20.800001"
     inkscape:window-x="0"
     inkscape:window-y="0"
     inkscape:window-maximized="1"
     inkscape:current-layer="svg22" />
  <rect
     style="opacity:0.2;stroke-width:1"
     width="8.3999996"
     height="39.200001"
     x="29.335594"
     y="12.244068"
     rx="1.4"
     ry="1.4"
     id="rect2" />
  <rect
     style="opacity:0.2;stroke-width:1"
     width="8.3999996"
     height="39.200001"
     x="51.735592"
     y="12.244068"
     rx="1.4"
     ry="1.4"
     id="rect4" />
  <rect
     style="fill:#c2352a;stroke-width:1"
     width="8.3999996"
     height="39.200001"
     x="51.735592"
     y="10.844069"
     rx="1.4"
     ry="1.4"
     id="rect6" />
  <rect
     style="fill:#c2352a;stroke-width:1"
     width="8.3999996"
     height="39.200001"
     x="29.335594"
     y="10.844069"
     rx="1.4"
     ry="1.4"
     id="rect8" />
  <rect
     style="fill:#c2352a;stroke-width:1"
     width="8.3999996"
     height="39.200001"
     x="4.1355934"
     y="10.844069"
     rx="1.4"
     ry="1.4"
     id="rect10" />
  <path
     style="opacity:0.2;stroke-width:1"
     d="m 5.5355932,12.244068 c -0.7756,0 -1.4,0.6244 -1.4,1.4 v 5.6 c 0,0.7756 0.6244,1.4 1.4,1.4 H 22.335593 c 0.7756,0 1.4,-0.6244 1.4,-1.4 v -5.6 c 0,-0.7756 -0.6244,-1.4 -1.4,-1.4 z m 25.8042968,0 a 2.0053761,1.650698 0 0 0 -1.736329,2.474609 l 6.699219,9.548438 6.69922,9.551171 a 2.0053761,1.650698 0 0 0 1.640625,0.823048 2.0053761,1.650698 0 0 0 1.829296,-0.823048 l 6.699219,-9.551171 6.696485,-9.548438 A 2.0053761,1.650698 0 0 0 58.131296,12.244068 H 44.735593 Z m -25.8042968,30.8 c -0.7756,0 -1.4,0.6244 -1.4,1.4 v 5.6 c 0,0.7756 0.6244,1.4 1.4,1.4 H 22.335593 c 0.7756,0 1.4,-0.6244 1.4,-1.4 v -5.6 c 0,-0.7756 -0.6244,-1.4 -1.4,-1.4 z"
     id="path12"
     inkscape:connector-curvature="0" />
  <rect
     style="fill:#d8564d;stroke-width:1"
     width="8.3999996"
     height="19.6"
     x="10.844069"
     y="-23.735594"
     rx="1.4"
     ry="1.4"
     transform="rotate(90)"
     id="rect14" />
  <rect
     style="fill:#d8564d;stroke-width:1"
     width="8.3999996"
     height="19.6"
     x="41.64407"
     y="-23.735594"
     rx="1.4"
     ry="1.4"
     transform="rotate(90)"
     id="rect16" />
  <path
     style="fill:#d8564d;stroke-width:1"
     d="m 31.340341,10.844068 a 2.0053761,1.650698 0 0 0 -1.736252,2.475801 l 6.699584,9.54859 6.69697,9.548591 a 2.0053761,1.650698 0 0 0 1.642263,0.825267 2.0053761,1.650698 0 0 0 1.830244,-0.825267 l 6.696973,-9.548591 6.696972,-9.54859 a 2.0053761,1.650698 0 0 0 -1.73625,-2.475801 H 44.736898 Z"
     id="path18"
     inkscape:connector-curvature="0" />
  <path
     style="opacity:0.2;fill:#ffffff;stroke-width:1"
     d="m 5.5355932,10.844068 c -0.7756,0 -1.4,0.6244 -1.4,1.4 v 1.4 c 0,-0.7756 0.6244,-1.4 1.4,-1.4 H 22.335593 c 0.7756,0 1.4,0.6244 1.4,1.4 v -1.4 c 0,-0.7756 -0.6244,-1.4 -1.4,-1.4 z m 25.8042968,0 a 2.0053761,1.650698 0 0 0 -1.81289,2.351563 2.0053761,1.650698 0 0 1 1.81289,-0.951563 h 13.395703 13.395703 a 2.0053761,1.650698 0 0 1 1.81289,0.951563 2.0053761,1.650698 0 0 0 -1.81289,-2.351563 H 44.735593 Z m -25.8042968,30.8 c -0.7756,0 -1.4,0.6244 -1.4,1.4 v 1.4 c 0,-0.7756 0.6244,-1.4 1.4,-1.4 H 22.335593 c 0.7756,0 1.4,0.6244 1.4,1.4 v -1.4 c 0,-0.7756 -0.6244,-1.4 -1.4,-1.4 z"
     id="path20"
     inkscape:connector-curvature="0" />
  <g
     inkscape:groupmode="layer"
     id="layer1"
     inkscape:label="Layer-num"
     transform="translate(0,16)">
    <text
       xml:space="preserve"
       style="font-style:normal;font-weight:normal;font-size:41.4607811px;line-height:1.25;font-family:sans-serif;letter-spacing:0px;word-spacing:0px;fill:#ffcc00;fill-opacity:1;stroke:none;stroke-width:0.74037111"
       x="17.221449"
       y="50.902863"
       id="text52"
       transform="scale(1.2450332,0.80319143)"><tspan
         sodipodi:role="line"
         id="tspan50"
         x="17.221449"
         y="50.902863"
         style="stroke-width:0.74037111">2</tspan></text>
  </g>
</svg>
