<?xml version="1.0" encoding="UTF-8" standalone="no"?>
<svg width="32" height="32" version="1" id="svg10" xmlns="http://www.w3.org/2000/svg" xmlns:svg="http://www.w3.org/2000/svg">
<defs id="defs14" />
<circle style="display:inline;fill:#232a2d" cx="16.5" cy="15.5" r="14.5" id="circle2" />
<path style="display:inline;fill:#ffffff" d="m 16.039062,5.0097656 c -0.308704,0.0135 -0.615761,0.041602 -0.921874,0.082031 C 12.668283,5.4152341 10.331073,6.5952328 8.5996094,8.5703125 5.1366807,12.520472 5.1318549,18.457859 8.5878906,22.414062 12.043927,26.370265 17.923767,27.158256 22.296875,24.25 a 1.5003306,1.501761 0 1 0 -1.660156,-2.501953 c -3.140123,2.088281 -7.3094,1.532168 -9.791016,-1.308594 -2.4816155,-2.840762 -2.4768388,-7.052248 0.0098,-9.888672 2.486566,-2.8364213 6.656492,-3.3867322 9.792969,-1.2929685 A 1.4997883,1.5012181 0 1 0 22.3125,6.7597656 c -1.911018,-1.2757024 -4.112508,-1.8444976 -6.273438,-1.75 z M 23,10.25 V 14 h -5.5 c -0.828427,0 -1.5,0.671555 -1.5,1.5 0,0.828445 0.671573,1.5 1.5,1.5 H 23 v 3.75 l 6.5,-5.25 z"
id="path6" />
</svg>
