<?xml version="1.0" encoding="UTF-8" standalone="no"?>
<svg
   width="64"
   height="64"
   version="1.1"
   viewBox="0 0 64 64"
   id="svg26"
   xmlns="http://www.w3.org/2000/svg"
   xmlns:svg="http://www.w3.org/2000/svg">
  <defs
     id="defs30">
    <clipPath
       clipPathUnits="userSpaceOnUse"
       id="clipPath16722">
      <g
         id="use16724">
        <rect
           style="opacity:1;fill:#0300ff;fill-opacity:1;stroke-width:0"
           id="rect17809"
           width="143.30228"
           height="141.65515"
           x="202.60612"
           y="-159.88579" />
      </g>
    </clipPath>
    <clipPath
       clipPathUnits="userSpaceOnUse"
       id="clipPath23845">
      <rect
         style="opacity:1;fill:#cc2a2a;fill-opacity:1;stroke-width:0"
         id="rect23847"
         width="210.83559"
         height="250.55826"
         x="283.06372"
         y="59.669743" />
    </clipPath>
  </defs>
  <g
     id="layer7"
     style="display:inline">
    <rect
       style="display:inline;opacity:0.2;stroke-width:0.973328"
       width="53.052631"
       height="56"
       x="-58"
       y="-60"
       rx="2.6526315"
       ry="2.8"
       transform="matrix(0,-1,-1,0,0,0)"
       id="rect2" />
    <rect
       style="display:inline;fill:#6b9fff;fill-opacity:1;stroke-width:0.973328"
       width="53.052631"
       height="56"
       x="-57.052631"
       y="-60"
       rx="2.6526315"
       ry="2.8"
       transform="matrix(0,-1,-1,0,0,0)"
       id="rect4" />
  </g>
  <g
     id="layer1"
     style="display:inline;opacity:0.2">
    <path
       style="fill:#29353b;fill-opacity:1;stroke-width:1.03008"
       d="M 6.800721,4 C 5.249554,4 4,5.3139475 4,6.9469073 v 43.7394017 3.419402 c 0,1.632963 1.249554,2.946914 2.800721,2.946914 H 17.999699 V 4.0041445 H 6.800721 Z"
       id="path6" />
    <rect
       style="opacity:0.2;fill:#ffffff;fill-opacity:1;stroke-width:1"
       width="6"
       height="6"
       x="8"
       y="9"
       rx="0.75"
       ry="0.75"
       id="rect12" />
    <rect
       style="fill:#ffffff;fill-opacity:1;stroke-width:1"
       width="6"
       height="6"
       x="8"
       y="8"
       rx="0.75"
       ry="0.75"
       id="rect14" />
    <rect
       style="opacity:0.2;fill:#ffffff;fill-opacity:1;stroke-width:1"
       width="6"
       height="6"
       x="8"
       y="17"
       rx="0.75"
       ry="0.75"
       id="rect16" />
    <rect
       style="fill:#ffffff;fill-opacity:1;stroke-width:1"
       width="6"
       height="6"
       x="8"
       y="16"
       rx="0.75"
       ry="0.75"
       id="rect18" />
    <rect
       style="opacity:0.2;fill:#ffffff;fill-opacity:1;stroke-width:1"
       width="6"
       height="6"
       x="8"
       y="25"
       rx="0.75"
       ry="0.75"
       id="rect20" />
    <rect
       style="fill:#ffffff;fill-opacity:1;stroke-width:1"
       width="6"
       height="6"
       x="8"
       y="24"
       rx="0.75"
       ry="0.75"
       id="rect22" />
  </g>
  <g
     id="g1165"
     style="display:inline">
    <g
       id="g10106"
       transform="matrix(0.13888889,0,0,0.13888889,-7.6164394,0.13415862)">
      <rect
         style="display:inline;fill:#000000;fill-opacity:0.2;stroke:none;stroke-width:0;stroke-opacity:0.2"
         id="rect1159"
         width="139.63638"
         height="17.454548"
         x="297.83838"
         y="227.43156" />
      <rect
         style="display:inline;opacity:0.6;fill:#000000;fill-opacity:0.2;stroke-width:0"
         id="rect1161"
         width="87.272743"
         height="87.272743"
         x="354.56564"
         y="105.24971" />
      <rect
         style="display:inline;fill:#3a578b;fill-opacity:0.32549;stroke-width:0"
         id="rect1163"
         width="87.272743"
         height="87.272743"
         x="297.83838"
         y="70.340614" />
    </g>
  </g>
  <g
     id="layer6"
     style="display:inline">
    <rect
       style="display:inline;fill:#ffffff;fill-opacity:1;stroke-width:0"
       id="rect1069"
       width="19.393942"
       height="2.4242427"
       x="33.75"
       y="30.610764" />
    <rect
       style="display:inline;opacity:1;fill:#ffffff;fill-opacity:1;stroke-width:0"
       id="rect1071"
       width="12.121214"
       height="12.121214"
       x="41.628788"
       y="13.641061" />
    <rect
       style="display:inline;fill:#0f56d9;fill-opacity:1;stroke-width:0"
       id="rect977"
       width="12.121214"
       height="12.121214"
       x="33.75"
       y="8.7925768" />
  </g>
</svg>
