<svg height="48" width="48" xmlns="http://www.w3.org/2000/svg">
 <path d="m4 36v-28c0-1.108.8988-2.1224 2-2h16l4 4h16.103s1.8975 0 1.8975 2v24c0 1.108-.892 2-2 2h-36c-1.108 0-2-.892-2-2z" fill="#86460b"/>
 <path d="m44 40v-28c0-1.108-.89878-2.1224-2-2h-16l-4 4h-16c-2 0-2 1.9167-2 1.9167v24.083c0 1.108.892 2 2 2h36c1.108 0 2-.892 2-2z" fill="#6ba4e7"/>
 <path d="m6 6c-1.108 0-2 .892-2 2v1c0-1.108.892-2 2-2h16l4 4v-1l-4-4z" fill="#ffffff" opacity=".1"/>
 <path d="m26 10l-4 4h-16c-2 0-2 1.9062-2 1.9062v1s0-1.906 2-1.906h16l4-4h16c1.1012-.1224 2 .892 2 2v-1c0-1.108-.89878-2.1224-2-2h-16z" fill="#ffffff" opacity=".1"/>
 <path d="m25 10l-3 3h-16c-2 0-2 1.9062-2 1.9062v1s0-1.906 2-1.906h16l3.5-3.5z" opacity=".1"/>
 <path d="m4 38.989v1.006c0 1.108.892 2 2 2h36c1.108 0 2-.892 2-2v-1.0059c0 1.108-.892 2-2 2h-36c-1.108 0-2-.892-2-2z" opacity=".3"/>
 <path d="m30.172 24s .82434.46523.24219 1.6875c-.88087 1.8424.8125 2.2637.8125 2.2637s-.53722-.43254.17969-1.9531c.793-1.685-1.234-1.998-1.234-1.998zm3.1992 1.8398s-1.6425.63-.58398 2.3516c.70012 1.141-.07617 1.707-.07617 1.707s1.9846-.56333 1.0273-2.1387c-.86069-1.4239-.36719-1.9199-.36719-1.9199zm-4.7285.04687s-1.4372 1.0952-.01367 2.4414c.942.896.325 1.672.325 1.672s1.7826-1.1326.49414-2.3711c-1.1634-1.1172-.80469-1.7422-.80469-1.7422zm.311 4.113h-3.953l2 8h8l .27539-1.0977c.233.058.474.098.725.098 1.6568 0 3-1.3432 3-3 0-1.4059-.97018-2.5771-2.2754-2.9023l.275-1.098h-8.047zm7.5312 2.0625a1 2 15 0 1 .0332.0059 1 2 15 0 1 .44922 2.1914 1 2 15 0 1 -1.4512 1.6777l.96875-3.875z" opacity=".2"/>
 <path d="m30.172 23s .824.465.242 1.688c-.881 1.842.813 2.263.813 2.263s-.538-.432.179-1.953c.793-1.685-1.234-1.998-1.234-1.998zm3.199 1.84s-1.642.63-.584 2.351c.7 1.141-.076 1.707-.076 1.707s1.985-.563 1.027-2.138c-.86-1.424-.367-1.92-.367-1.92zm-4.728.047s-1.438 1.095-.014 2.441c.941.896.324 1.672.324 1.672s1.783-1.133.494-2.371c-1.163-1.117-.804-1.742-.804-1.742zm.31 4.113h-3.953l2 8h8l .275-1.098c.233.058.474.098.725.098 1.657 0 3-1.343 3-3 0-1.406-.97-2.577-2.275-2.902l.275-1.098zm7.531 2.062a1 2 15 0 1 .034.006 1 2 15 0 1 .449 2.192 1 2 15 0 1 -1.451 1.678z" fill="#ffffff"/>
</svg>
