<svg height="48" width="48" xmlns="http://www.w3.org/2000/svg">
 <path d="m4 36v-28c0-1.108.8988-2.1224 2-2h16l4 4h16.103s1.8975 0 1.8975 2v24c0 1.108-.892 2-2 2h-36c-1.108 0-2-.892-2-2z" fill="#86460b"/>
 <path d="m44 40v-28c0-1.108-.89878-2.1224-2-2h-16l-4 4h-16c-2 0-2 1.9167-2 1.9167v24.083c0 1.108.892 2 2 2h36c1.108 0 2-.892 2-2z" fill="#6ba4e7"/>
 <path d="m27.5 24.25a3.25 3.25 0 0 0 -3.094 2.256 1.75 1.75 0 0 0 -.906-.256 1.75 1.75 0 0 0 -1.75 1.75 1.75 1.75 0 0 0 .221.848 3.75 3.75 0 0 0 -1.647 2.408 3.25 3.25 0 0 0 -3.074 3.244 3.25 3.25 0 0 0 3.25 3.25 3.25 3.25 0 0 0 2.068-.748 1.75 1.75 0 0 0 1.432.748 1.75 1.75 0 0 0 1.699-1.342 4.75 4.75 0 0 0 3.301 1.342 4.75 4.75 0 0 0 3.209-1.254 3.75 3.75 0 0 0 2.791 1.254 3.75 3.75 0 0 0 2.459-.924 1.75 1.75 0 0 0 1.541.924 1.75 1.75 0 0 0 1.75-1.75 1.75 1.75 0 0 0 -1.75-1.75 1.75 1.75 0 0 0 -.264.021 3.75 3.75 0 0 0 .014-.271 3.75 3.75 0 0 0 -3.75-3.75 3.75 3.75 0 0 0 -.346.02 3.25 3.25 0 0 0 .096-.77 3.25 3.25 0 0 0 -3.25-3.25 3.25 3.25 0 0 0 -.947.145 3.25 3.25 0 0 0 -3.053-2.145z" opacity=".2"/>
 <path d="m6 6c-1.108 0-2 .892-2 2v1c0-1.108.892-2 2-2h16l4 4v-1l-4-4z" fill="#ffffff" opacity=".1"/>
 <path d="m26 10l-4 4h-16c-2 0-2 1.9062-2 1.9062v1s0-1.906 2-1.906h16l4-4h16c1.1012-.1224 2 .892 2 2v-1c0-1.108-.89878-2.1224-2-2h-16z" fill="#ffffff" opacity=".1"/>
 <path d="m25 10l-3 3h-16c-2 0-2 1.9062-2 1.9062v1s0-1.906 2-1.906h16l3.5-3.5z" opacity=".1"/>
 <path d="m4 38.989v1.006c0 1.108.892 2 2 2h36c1.108 0 2-.892 2-2v-1.0059c0 1.108-.892 2-2 2h-36c-1.108 0-2-.892-2-2z" opacity=".3"/>
 <circle cx="31.5" cy="28.5" fill="#ffffff" r="3.25" stroke="#ababab" stroke-linecap="round" stroke-linejoin="round" stroke-width=".5"/>
 <circle cx="39" cy="35" fill="#ffffff" r="1.75" stroke="#ababab" stroke-linecap="round" stroke-linejoin="round" stroke-width=".5"/>
 <circle cx="35" cy="33" fill="#ffffff" r="3.75" stroke="#ababab" stroke-linecap="round" stroke-linejoin="round" stroke-width=".5"/>
 <circle cx="20.5" cy="33.5" fill="#ffffff" r="3.25" stroke="#ababab" stroke-linecap="round" stroke-linejoin="round" stroke-width=".5"/>
 <circle cx="23.5" cy="27" fill="#ffffff" r="1.75" stroke="#ababab" stroke-linecap="round" stroke-linejoin="round" stroke-width=".5"/>
 <circle cx="24" cy="31" fill="#ffffff" r="3.75" stroke="#ababab" stroke-linecap="round" stroke-linejoin="round" stroke-width=".5"/>
 <circle cx="24" cy="35" fill="#ffffff" r="1.75" stroke="#ababab" stroke-linecap="round" stroke-linejoin="round" stroke-width=".5"/>
 <circle cx="27.5" cy="26.5" fill="#ffffff" r="3.25" stroke="#ababab" stroke-linecap="round" stroke-linejoin="round" stroke-width=".5"/>
 <circle cx="29" cy="32" fill="#ffffff" r="4.75" stroke="#ababab" stroke-linecap="round" stroke-linejoin="round" stroke-width=".5"/>
</svg>
