<svg height="48" width="48" xmlns="http://www.w3.org/2000/svg">
 <path d="m4 36v-28c0-1.108.89878-2.1224 2-2h16l4 4h16.103s1.8975 0 1.8975 2v24c0 1.108-.892 2-2 2h-36c-1.108 0-2-.892-2-2z" fill="#86460b"/>
 <path d="m44 40v-28c0-1.108-.89878-2.1224-2-2h-16l-4 4h-16c-2 0-2 1.9167-2 1.9167v24.083c0 1.108.892 2 2 2h36c1.108 0 2-.892 2-2z" fill="#6ba4e7"/>
 <path d="m6 6c-1.108 0-2 .892-2 2v1c0-1.108.892-2 2-2h16l4 4v-1l-4-4z" fill="#ffffff" opacity=".1"/>
 <path d="m26 10l-4 4h-16c-2 0-2 1.9062-2 1.9062v1s0-1.9062 2-1.9062h16l4-4h16c1.1012-.12236 2 .892 2 2v-1c0-1.108-.89878-2.1224-2-2z" fill="#ffffff" opacity=".1"/>
 <path d="m25 10l-3 3h-16c-2 0-2 1.9062-2 1.9062v1s0-1.9062 2-1.9062h16l3.5-3.5z" opacity=".1"/>
 <path d="m31.344 25c-.739 0-1.344.605-1.344 1.344v6.8437c-.31647-.11352-.64447-.1875-1-.1875-1.6568 0-3 1.3432-3 3s1.3432 3 3 3 3-1.3432 3-3v-7h6v4.1875c-.31647-.11352-.64447-.1875-1-.1875-1.6568 0-3 1.3432-3 3s1.3432 3 3 3 3-1.3432 3-3v-10h-.0625c-.14881-.57408-.65936-1-1.2812-1h-7.3125z" opacity=".2"/>
 <path d="m31.344 24c-.739 0-1.344.605-1.344 1.344v6.8437c-.31647-.11352-.64447-.1875-1-.1875-1.6568 0-3 1.3432-3 3s1.3432 3 3 3 3-1.3432 3-3v-7h6v4.1875c-.31647-.11352-.64447-.1875-1-.1875-1.6568 0-3 1.3432-3 3s1.3432 3 3 3 3-1.3432 3-3v-10h-.0625c-.14881-.57408-.65936-1-1.2812-1h-7.3125z" fill="#ffffff"/>
 <path d="m4 38.989v1.006c0 1.108.892 2 2 2h36c1.108 0 2-.892 2-2v-1.0059c0 1.108-.892 2-2 2h-36c-1.108 0-2-.89201-2-2z" opacity=".3"/>
</svg>
