<svg height="48" width="48" xmlns="http://www.w3.org/2000/svg">
 <path d="m4 36v-28c0-1.108.8988-2.1224 2-2h16l4 4h16.103s1.8975 0 1.8975 2v24c0 1.108-.892 2-2 2h-36c-1.108 0-2-.892-2-2z" fill="#86460b"/>
 <path d="m44 40v-28c0-1.108-.89878-2.1224-2-2h-16l-4 4h-16c-2 0-2 1.9167-2 1.9167v24.083c0 1.108.892 2 2 2h36c1.108 0 2-.892 2-2z" fill="#6ba4e7"/>
 <path d="m6 6c-1.108 0-2 .892-2 2v1c0-1.108.892-2 2-2h16l4 4v-1l-4-4z" fill="#ffffff" opacity=".1"/>
 <path d="m26 10l-4 4h-16c-2 0-2 1.9062-2 1.9062v1s0-1.906 2-1.906h16l4-4h16c1.1012-.1224 2 .892 2 2v-1c0-1.108-.89878-2.1224-2-2h-16z" fill="#ffffff" opacity=".1"/>
 <path d="m25 10l-3 3h-16c-2 0-2 1.9062-2 1.9062v1s0-1.906 2-1.906h16l3.5-3.5z" opacity=".1"/>
 <path d="m27.812 24c-.0237 0-.0393.025-.0625.031-.0791.02-.15937.046-.25.094-.0994.052-.19803.119-.28125.2188-.009.011-.023.02-.0312.031-.057.076-.0919.1737-.125.2812-.009.031-.0243.06-.0312.094-.0209.081-.0327.166-.0312.25v9h1v-1h1v-7h5v3h3v9h1v-1h1c .001-.1452-.00082-.7376 0-1v-1c .00043-.3561-.0001-.5737 0-1v-3c-.002-2.4169-.00066-2.3463 0-2.4375.00015-.021 0-.5625 0-.5625l-4-4h-7.1874zm10.188 14v1h1v-1zm-1 0h-1v1h1zm-1 0v-1h-1v1zm-1 0h-1v1h1zm-1 0v-1h-1v1zm-1 0h-1v1h1zm-1 0v-1h-1v1zm-1 0h-1v1h1zm-1 0v-1h-1v1zm-1 0h-1v1h1zm-1 0v-1h-1v1zm0-1h1v-1h-1zm0-1v-1h-1v1zm0-1h1v-1h-1z" fill-rule="evenodd" opacity=".2"/>
 <path d="m27.812 23c-.0237 0-.0393.025-.0625.031-.0791.02-.15937.046-.25.094-.0994.052-.19803.119-.28125.2188-.009.011-.023.02-.0312.031-.057.076-.0919.1737-.125.2812-.009.031-.0243.06-.0312.094-.0209.081-.0327.166-.0312.25v9h1v-1h1v-7h5v3h3v9h1v-1h1c .001-.1452-.00082-.7376 0-1v-1c .00043-.3561-.0001-.5737 0-1v-3c-.002-2.4169-.00066-2.3463 0-2.4375.00015-.021 0-.5625 0-.5625l-4-4h-7.1874zm10.188 14v1h1v-1zm-1 0h-1v1h1zm-1 0v-1h-1v1zm-1 0h-1v1h1zm-1 0v-1h-1v1zm-1 0h-1v1h1zm-1 0v-1h-1v1zm-1 0h-1v1h1zm-1 0v-1h-1v1zm-1 0h-1v1h1zm-1 0v-1h-1v1zm0-1h1v-1h-1zm0-1v-1h-1v1zm0-1h1v-1h-1z" fill="#ffffff" fill-rule="evenodd"/>
 <path d="m4 38.989v1.006c0 1.108.892 2 2 2h36c1.108 0 2-.892 2-2v-1.0059c0 1.108-.892 2-2 2h-36c-1.108 0-2-.892-2-2z" opacity=".3"/>
</svg>
