<svg height="48" width="48" xmlns="http://www.w3.org/2000/svg">
 <path d="m4 36v-28c0-1.108.8988-2.1224 2-2h16l4 4h16.103s1.8975 0 1.8975 2v24c0 1.108-.892 2-2 2h-36c-1.108 0-2-.892-2-2z" fill="#86460b"/>
 <path d="m44 40v-28c0-1.108-.89878-2.1224-2-2h-16l-4 4h-16c-2 0-2 1.9167-2 1.9167v24.083c0 1.108.892 2 2 2h36c1.108 0 2-.892 2-2z" fill="#6ba4e7"/>
 <path d="m6 6c-1.108 0-2 .892-2 2v1c0-1.108.892-2 2-2h16l4 4v-1l-4-4z" fill="#ffffff" opacity=".1"/>
 <path d="m26 10l-4 4h-16c-2 0-2 1.9062-2 1.9062v1s0-1.906 2-1.906h16l4-4h16c1.1012-.1224 2 .892 2 2v-1c0-1.108-.89878-2.1224-2-2h-16z" fill="#ffffff" opacity=".1"/>
 <path d="m25 10l-3 3h-16c-2 0-2 1.9062-2 1.9062v1s0-1.906 2-1.906h16l3.5-3.5z" opacity=".1"/>
 <path d="m4 38.989v1.006c0 1.108.892 2 2 2h36c1.108 0 2-.892 2-2v-1.0059c0 1.108-.892 2-2 2h-36c-1.108 0-2-.892-2-2z" opacity=".3"/>
 <path d="m31.188 24l-.1543 1.8438a5.5 5.5 0 0 0 -1.6074.92969l-1.677-.79-1.75 3.032 1.521 1.056a5.5 5.5 0 0 0 -.084.928 5.5 5.5 0 0 0 .0801.93164l-1.517 1.052 1.75 3.0312 1.6719-.7871a5.5 5.5 0 0 0 1.6113.92382l.155 1.848h3.5l.1543-1.8438a5.5 5.5 0 0 0 1.6074-.92969l1.6758.78906 1.75-3.0312-1.5215-1.0566a5.5 5.5 0 0 0 .085-.927 5.5 5.5 0 0 0 -.081-.932l1.5176-1.0527-1.75-3.0312-1.6719.7871a5.5 5.5 0 0 0 -1.611-.923l-.154-1.848h-3.5zm1.75 5a2 2 0 0 1 2 2 2 2 0 0 1 -2 2 2 2 0 0 1 -2-2 2 2 0 0 1 2-2z" opacity=".2"/>
 <path d="m31.188 23l-.1543 1.8438a5.5 5.5 0 0 0 -1.6074.92969l-1.677-.79-1.75 3.032 1.521 1.056a5.5 5.5 0 0 0 -.084.928 5.5 5.5 0 0 0 .0801.93164l-1.517 1.052 1.75 3.0312 1.6719-.7871a5.5 5.5 0 0 0 1.6113.92382l.155 1.848h3.5l.1543-1.8438a5.5 5.5 0 0 0 1.6074-.92969l1.6758.78906 1.75-3.0312-1.5215-1.0566a5.5 5.5 0 0 0 .085-.927 5.5 5.5 0 0 0 -.081-.932l1.5176-1.0527-1.75-3.0312-1.6719.7871a5.5 5.5 0 0 0 -1.611-.923l-.154-1.848h-3.5zm1.75 5a2 2 0 0 1 2 2 2 2 0 0 1 -2 2 2 2 0 0 1 -2-2 2 2 0 0 1 2-2z" fill="#ffffff"/>
</svg>
