<svg height="48" width="48" xmlns="http://www.w3.org/2000/svg">
 <path d="m4 36v-28c0-1.108.8988-2.1224 2-2h16l4 4h16.103s1.8975 0 1.8975 2v24c0 1.108-.892 2-2 2h-36c-1.108 0-2-.892-2-2z" fill="#86460b"/>
 <path d="m44 40v-28c0-1.108-.89878-2.1224-2-2h-16l-4 4h-16c-2 0-2 1.9167-2 1.9167v24.083c0 1.108.892 2 2 2h36c1.108 0 2-.892 2-2z" fill="#6ba4e7"/>
 <path d="m6 6c-1.108 0-2 .892-2 2v1c0-1.108.892-2 2-2h16l4 4v-1l-4-4z" fill="#ffffff" opacity=".1"/>
 <path d="m26 10l-4 4h-16c-2 0-2 1.9062-2 1.9062v1s0-1.906 2-1.906h16l4-4h16c1.1012-.1224 2 .892 2 2v-1c0-1.108-.89878-2.1224-2-2h-16z" fill="#ffffff" opacity=".1"/>
 <path d="m25 10l-3 3h-16c-2 0-2 1.9062-2 1.9062v1s0-1.906 2-1.906h16l3.5-3.5z" opacity=".1"/>
 <path d="m4 38.989v1.006c0 1.108.892 2 2 2h36c1.108 0 2-.892 2-2v-1.0059c0 1.108-.892 2-2 2h-36c-1.108 0-2-.892-2-2z" opacity=".3"/>
 <path d="m564.78 463.02c-.24234.001-.52104.0664-.80589.21875-1.0374.54647-1.992 2.336-2.5107 4.6562-.44216 1.9709-.60455 4.666-.34095 5.75.22958.93169.62706 1.3438 1.3328 1.3438 1.0459-.0179 2.3593-1.1822 3.1926-2.75.6027-.86787 2.0005-1.2625 3.3476-1.2188 1.347-.0471 2.7448.35088 3.3476 1.2188.8333 1.5678 2.1467 2.7321 3.1926 2.75.70576 0 1.1032-.41206 1.3328-1.3438.2636-1.084.10121-3.7791-.34095-5.75-.51869-2.3203-1.4733-4.1098-2.5107-4.6562-.5697-.30459-1.0402-.29563-1.4568 0-.52719.37626-1.6258.77958-3.5645.78125-1.9387.002-3.0373-.40499-3.5645-.78125-.20832-.14782-.40857-.21987-.65091-.21875zm.24797 3h .99186v1h .99187v1h-.99187v1h-.99186v-1h-.99187v-1h .99187zm7.439 0c .2739 0 .49593.22386.49593.5s-.22203.5-.49593.5-.49593-.22386-.49593-.5.22203-.5.49593-.5zm-.99187 1c .2739 0 .49594.22386.49594.5s-.22204.5-.49594.5c-.27389 0-.49593-.22386-.49593-.5s.22204-.5.49593-.5zm1.9837 0c .27389 0 .49593.22386.49593.5s-.22204.5-.49593.5c-.2739 0-.49594-.22386-.49594-.5s.22204-.5.49594-.5zm-.99187 1c .2739 0 .49593.22386.49593.5s-.22203.5-.49593.5-.49593-.22386-.49593-.5.22203-.5.49593-.5z" opacity=".2" transform="translate(-537 -437.99)"/>
 <path d="m564.78 463.02c-.24234.001-.52104.0664-.80589.21875-1.0374.54647-1.992 2.336-2.5107 4.6562-.44216 1.9709-.60455 4.666-.34095 5.75.22958.93169.62706 1.3438 1.3328 1.3438 1.0459-.0179 2.3593-1.1822 3.1926-2.75.6027-.86787 2.0005-1.2625 3.3476-1.2188 1.347-.0471 2.7448.35088 3.3476 1.2188.8333 1.5678 2.1467 2.7321 3.1926 2.75.70576 0 1.1032-.41206 1.3328-1.3438.2636-1.084.10121-3.7791-.34095-5.75-.51869-2.3203-1.4733-4.1098-2.5107-4.6562-.5697-.30459-1.0402-.29563-1.4568 0-.52719.37626-1.6258.77958-3.5645.78125-1.9387.002-3.0373-.40499-3.5645-.78125-.20832-.14782-.40857-.21987-.65091-.21875zm.24797 3h .99186v1h .99187v1h-.99187v1h-.99186v-1h-.99187v-1h .99187zm7.439 0c .2739 0 .49593.22386.49593.5s-.22203.5-.49593.5-.49593-.22386-.49593-.5.22203-.5.49593-.5zm-.99187 1c .2739 0 .49594.22386.49594.5s-.22204.5-.49594.5c-.27389 0-.49593-.22386-.49593-.5s.22204-.5.49593-.5zm1.9837 0c .27389 0 .49593.22386.49593.5s-.22204.5-.49593.5c-.2739 0-.49594-.22386-.49594-.5s.22204-.5.49594-.5zm-.99187 1c .2739 0 .49593.22386.49593.5s-.22203.5-.49593.5-.49593-.22386-.49593-.5.22203-.5.49593-.5z" fill="#ffffff" transform="translate(-537 -438.99)"/>
</svg>
