<svg height="48" width="48" xmlns="http://www.w3.org/2000/svg">
 <path d="m4 36v-28c0-1.108.8988-2.1224 2-2h16l4 4h16.103s1.8975 0 1.8975 2v24c0 1.108-.892 2-2 2h-36c-1.108 0-2-.892-2-2z" fill="#86460b"/>
 <path d="m44 40v-28c0-1.108-.89878-2.1224-2-2h-16l-4 4h-16c-2 0-2 1.9167-2 1.9167v24.083c0 1.108.892 2 2 2h36c1.108 0 2-.892 2-2z" fill="#6ba4e7"/>
 <path d="m6 6c-1.108 0-2 .892-2 2v1c0-1.108.892-2 2-2h16l4 4v-1l-4-4z" fill="#ffffff" opacity=".1"/>
 <path d="m26 10l-4 4h-16c-2 0-2 1.9062-2 1.9062v1s0-1.906 2-1.906h16l4-4h16c1.1012-.1224 2 .892 2 2v-1c0-1.108-.89878-2.1224-2-2h-16z" fill="#ffffff" opacity=".1"/>
 <path d="m25 10l-3 3h-16c-2 0-2 1.9062-2 1.9062v1s0-1.906 2-1.906h16l3.5-3.5z" opacity=".1"/>
 <path d="m4 38.989v1.006c0 1.108.892 2 2 2h36c1.108 0 2-.892 2-2v-1.0059c0 1.108-.892 2-2 2h-36c-1.108 0-2-.892-2-2z" opacity=".3"/>
 <path d="m30.978838 34.673796c-1.663307-.06728-2.789008-.194621-3.659014-.414043-.995979-.251187-1.706561-.631693-1.999845-1.070896-.20273-.303583-.236738-.460571-.223958-1.033978.01076-.482846.01158-.487647.126228-.726057.280215-.582826.797713-1.076906 1.756605-1.67712.474119-.296774 1.448156-.775923 2.143991-1.054685.692179-.277289.84662-.387471.998773-.71262.0767-.163993.09278-.240148.09278-.440482 0-.382791-.07014-.576397-.304538-.840384-.986815-1.111496-1.619009-2.759014-1.619009-4.219213 0-1.615621.692927-2.878423 1.912365-3.48514.515162-.256327.96782-.367871 1.591628-.392222 1.708752-.06666 3.117627.888574 3.598525 2.439937.253708.818419.259871 1.913502.01618 2.877953-.236624.936619-.771139 2.002414-1.32163 2.635273-.287609.330651-.314858.378727-.37382.65969-.07055.336302-.05192.675768.04885.890244.112281.238878.259481.345914.689477.501368 2.255514.815416 3.8487 1.89423 4.244198 2.873948.06758.167444.07404.232324.07414.743451.00003.543591-.0021.565482-.08765.74718-.365176.779528-1.511069 1.28104-3.517744 1.539588-.884055.113911-3.157328.199812-4.186536.158208z" fill="#ffffff"/>
 <path d="m30.966496 36.097524c-1.663307-.06728-2.789008-.194621-3.659014-.414043-.995979-.251187-1.706561-.631693-1.999845-1.070896-.20273-.303583-.236738-.460571-.223958-1.033978.01076-.482846.01158-.487647.126228-.726057.280215-.582826.797713-1.076906 1.756605-1.67712.474119-.296774 1.448156-.775923 2.143991-1.054685.692179-.277288.84662-.38747.998773-.712619.0767-.163993.09278-.240148.09278-.440482 0-.382791-.07014-.576397-.304538-.840384-.986815-1.111496-1.619009-2.759014-1.619009-4.219213 0-1.615621.692927-2.878423 1.912365-3.48514.515162-.256327.96782-.367871 1.591628-.392222 1.708752-.06666 3.117627.888574 3.598525 2.439937.253708.818419.259871 1.913502.01618 2.877953-.236624.936619-.771139 2.002414-1.32163 2.635273-.287609.330651-.314858.378727-.37382.65969-.07055.336302-.05192.675768.04885.890244.112281.238878.259481.345914.689477.501367 2.255514.815416 3.8487 1.89423 4.244198 2.873948.06758.167444.07404.232324.07414.743451.00003.543591-.0021.565482-.08765.74718-.365176.779528-1.511069 1.28104-3.517744 1.539588-.884055.113911-3.157328.199812-4.186536.158208z" fill="#ffffff" opacity=".2"/>
</svg>
