<svg height="48" width="48" xmlns="http://www.w3.org/2000/svg">
 <path d="m4 36v-28c0-1.108.8988-2.1224 2-2h16l4 4h16.103s1.8975 0 1.8975 2v24c0 1.108-.892 2-2 2h-36c-1.108 0-2-.892-2-2z" fill="#86460b"/>
 <path d="m44 40v-28c0-1.108-.89878-2.1224-2-2h-16l-4 4h-16c-2 0-2 1.9167-2 1.9167v24.083c0 1.108.892 2 2 2h36c1.108 0 2-.892 2-2z" fill="#6ba4e7"/>
 <path d="m6 6c-1.108 0-2 .892-2 2v1c0-1.108.892-2 2-2h16l4 4v-1l-4-4z" fill="#ffffff" opacity=".1"/>
 <path d="m26 10l-4 4h-16c-2 0-2 1.9062-2 1.9062v1s0-1.906 2-1.906h16l4-4h16c1.1012-.1224 2 .892 2 2v-1c0-1.108-.89878-2.1224-2-2h-16z" fill="#ffffff" opacity=".1"/>
 <path d="m25 10l-3 3h-16c-2 0-2 1.9062-2 1.9062v1s0-1.906 2-1.906h16l3.5-3.5z" opacity=".1"/>
 <path d="m4 38.989v1.006c0 1.108.892 2 2 2h36c1.108 0 2-.892 2-2v-1.0059c0 1.108-.892 2-2 2h-36c-1.108 0-2-.892-2-2z" opacity=".3"/>
 <path d="m31.758837 23.340057c-3.001504 0-5.432683 2.428526-5.432683 5.432682 0 3.001505 2.431179 5.432683 5.432683 5.432683.82896 0 1.607522-.183034 2.313134-.509314l2.037256 2.037257c.957616.964248.9669.964248 1.931149 0 .957617-.957617.957617-.966901 0-1.931149l-1.867485-1.867485c.637969-.896605 1.018628-1.980223 1.018628-3.161992 0-3.004156-2.431178-5.432682-5.432682-5.432682zm-.08489 2.716341c.734791-.02255 1.448361.25333 1.976244.765297.527883.511968.824983 1.216253.824983 1.951044 0 1.50009-1.216253 2.715016-2.716341 2.715016-1.50009 0-2.716342-1.214926-2.716342-2.715016-.0013-1.466929 1.164525-2.669919 2.631456-2.716341z" fill="#ffffff" fill-rule="evenodd"/>
 <path d="m31.782455 24.176176c-3.001504 0-5.432683 2.428526-5.432683 5.432682 0 3.001505 2.431179 5.432683 5.432683 5.432683.82896 0 1.607522-.183034 2.313134-.509314l2.037256 2.037257c.957616.964248.9669.964248 1.931149 0 .957617-.957617.957617-.966901 0-1.931149l-1.867485-1.867485c.637969-.896605 1.018628-1.980223 1.018628-3.161992 0-3.004156-2.431178-5.432682-5.432682-5.432682zm-.08489 2.716341c.734791-.02255 1.448361.25333 1.976244.765297.527883.511968.824983 1.216253.824983 1.951044 0 1.50009-1.216253 2.715016-2.716341 2.715016-1.50009 0-2.716342-1.214926-2.716342-2.715016-.0013-1.466929 1.164525-2.669919 2.631456-2.716341z" fill="#ffffff" fill-opacity=".078" fill-rule="evenodd"/>
</svg>
