<svg height="48" width="48" xmlns="http://www.w3.org/2000/svg">
 <path d="m4 36v-28c0-1.108.8988-2.1224 2-2h16l4 4h16.103s1.8975 0 1.8975 2v24c0 1.108-.892 2-2 2h-36c-1.108 0-2-.892-2-2z" fill="#86460b"/>
 <path d="m44 40v-28c0-1.108-.89878-2.1224-2-2h-16l-4 4h-16c-2 0-2 1.9167-2 1.9167v24.083c0 1.108.892 2 2 2h36c1.108 0 2-.892 2-2z" fill="#6ba4e7"/>
 <path d="m6 6c-1.108 0-2 .892-2 2v1c0-1.108.892-2 2-2h16l4 4v-1l-4-4z" fill="#ffffff" opacity=".1"/>
 <path d="m26 10l-4 4h-16c-2 0-2 1.9062-2 1.9062v1s0-1.906 2-1.906h16l4-4h16c1.1012-.1224 2 .892 2 2v-1c0-1.108-.89878-2.1224-2-2h-16z" fill="#ffffff" opacity=".1"/>
 <path d="m25 10l-3 3h-16c-2 0-2 1.9062-2 1.9062v1s0-1.906 2-1.906h16l3.5-3.5z" opacity=".1"/>
 <path d="m4 38.989v1.006c0 1.108.892 2 2 2h36c1.108 0 2-.892 2-2v-1.0059c0 1.108-.892 2-2 2h-36c-1.108 0-2-.892-2-2z" opacity=".3"/>
 <path d="m28.707 21.016l-.707.707 1.408 1.408a2.5 2.5 0 0 0 -.41 1.369 2.5 2.5 0 0 0 2 2.4492v4.1055a2.5 2.5 0 0 0 -2 2.4453 2.5 2.5 0 0 0 2.5 2.5 2.5 2.5 0 0 0 2.5-2.5 2.5 2.5 0 0 0 -2-2.4492v-4.1055a2.5 2.5 0 0 0 .86914-.35352l1.541 1.541a2.5 2.5 0 0 0 -.41 1.369 2.5 2.5 0 0 0 2.5 2.5 2.5 2.5 0 0 0 2.5-2.5 2.5 2.5 0 0 0 -2.5-2.5 2.5 2.5 0 0 0 -1.3867.42188l-1.533-1.535a2.5 2.5 0 0 0 .42-1.387 2.5 2.5 0 0 0 -2.5-2.5 2.5 2.5 0 0 0 -1.3848.42188l-1.4062-1.4062z" fill-rule="evenodd" opacity=".2" transform="translate(0 1)"/>
 <path d="m28.707 21.016l-.707.707 1.408 1.408a2.5 2.5 0 0 0 -.41 1.369 2.5 2.5 0 0 0 2 2.449v4.106a2.5 2.5 0 0 0 -2 2.445 2.5 2.5 0 0 0 2.5 2.5 2.5 2.5 0 0 0 2.5-2.5 2.5 2.5 0 0 0 -2-2.449v-4.106a2.5 2.5 0 0 0 .869-.353l1.541 1.541a2.5 2.5 0 0 0 -.41 1.367 2.5 2.5 0 0 0 2.5 2.5 2.5 2.5 0 0 0 2.5-2.5 2.5 2.5 0 0 0 -2.5-2.5 2.5 2.5 0 0 0 -1.387.422l-1.533-1.535a2.5 2.5 0 0 0 .42-1.387 2.5 2.5 0 0 0 -2.5-2.5 2.5 2.5 0 0 0 -1.385.422z" fill="#ffffff" fill-rule="evenodd"/>
</svg>
