<svg height="48" width="48" xmlns="http://www.w3.org/2000/svg">
 <path d="m4 36v-28c0-1.108.8988-2.1224 2-2h16l4 4h16.103s1.8975 0 1.8975 2v24c0 1.108-.892 2-2 2h-36c-1.108 0-2-.892-2-2z" fill="#86460b"/>
 <path d="m44 40v-28c0-1.108-.89878-2.1224-2-2h-16l-4 4h-16c-2 0-2 1.9167-2 1.9167v24.083c0 1.108.892 2 2 2h36c1.108 0 2-.892 2-2z" fill="#6ba4e7"/>
 <path d="m24 29h3l2 8.0004 2-12 2.5 7 1.5-5 2 6.0004h3" fill="none" opacity=".2" stroke="#000000" stroke-linejoin="round" stroke-width="2"/>
 <path d="m6 6c-1.108 0-2 .892-2 2v1c0-1.108.892-2 2-2h16l4 4v-1l-4-4z" fill="#ffffff" opacity=".1"/>
 <path d="m26 10l-4 4h-16c-2 0-2 1.9062-2 1.9062v1s0-1.906 2-1.906h16l4-4h16c1.1012-.1224 2 .892 2 2v-1c0-1.108-.89878-2.1224-2-2h-16z" fill="#ffffff" opacity=".1"/>
 <path d="m25 10l-3 3h-16c-2 0-2 1.9062-2 1.9062v1s0-1.906 2-1.906h16l3.5-3.5z" opacity=".1"/>
 <path d="m4 38.989v1.006c0 1.108.892 2 2 2h36c1.108 0 2-.892 2-2v-1.0059c0 1.108-.892 2-2 2h-36c-1.108 0-2-.892-2-2z" opacity=".3"/>
 <path d="m31.027 23a1.0001 1.0001 0 0 0 -1.0137.83594l-1.209 7.2559-.83398-3.334a1.0001 1.0001 0 0 0 -.97-.758h-3v2h2.2188l1.8105 7.2422a1.0001 1.0001 0 0 0 1.957-.07813l1.3672-8.2031 1.2051 3.375a1.0001 1.0001 0 0 0 1.8984-.04883l.5918-1.9746 1.002 3.0039a1.0001 1.0001 0 0 0 .95.684h3v-2h-2.2793l-1.7715-5.3164a1.0001 1.0001 0 0 0 -1.9062.0293l-.625 2.084-1.4766-4.1328a1.0001 1.0001 0 0 0 -.914-.664z" fill="#ffffff" fill-rule="evenodd"/>
</svg>
