<svg height="48" width="48" xmlns="http://www.w3.org/2000/svg">
 <path d="m4 36v-28c0-1.108.8988-2.1224 2-2h16l4 4h16.103s1.8975 0 1.8975 2v24c0 1.108-.892 2-2 2h-36c-1.108 0-2-.892-2-2z" fill="#86460b"/>
 <path d="m44 40v-28c0-1.108-.89878-2.1224-2-2h-16l-4 4h-16c-2 0-2 1.9167-2 1.9167v24.083c0 1.108.892 2 2 2h36c1.108 0 2-.892 2-2z" fill="#6ba4e7"/>
 <path d="m6 6c-1.108 0-2 .892-2 2v1c0-1.108.892-2 2-2h16l4 4v-1l-4-4z" fill="#ffffff" opacity=".1"/>
 <path d="m26 10l-4 4h-16c-2 0-2 1.9062-2 1.9062v1s0-1.906 2-1.906h16l4-4h16c1.1012-.1224 2 .892 2 2v-1c0-1.108-.89878-2.1224-2-2h-16z" fill="#ffffff" opacity=".1"/>
 <path d="m25 10l-3 3h-16c-2 0-2 1.9062-2 1.9062v1s0-1.906 2-1.906h16l3.5-3.5z" opacity=".1"/>
 <path d="m4 38.989v1.006c0 1.108.892 2 2 2h36c1.108 0 2-.892 2-2v-1.0059c0 1.108-.892 2-2 2h-36c-1.108 0-2-.892-2-2z" opacity=".3"/>
 <path d="m30 26.188c-1.9549.40003-3.4913 1.9489-3.8906 3.9062h-3.1094v2h3.1094c.4 1.956 1.937 3.506 3.891 3.906v-9.8125zm2 0v9.812c1.9544-.39992 3.4908-1.9497 3.8906-3.9062h3.1094v-2h-3.1094c-.4-1.958-1.936-3.506-3.891-3.906z" opacity=".2"/>
 <path d="m30 25.187c-1.9549.40003-3.4913 1.9489-3.8906 3.9062h-3.1094v2h3.1094c.39986 1.9566 1.9363 3.5063 3.8906 3.9062v-9.8125zm2 0v9.8125c1.9544-.39992 3.4908-1.9497 3.8906-3.9062h3.1094v-2h-3.1094c-.4-1.958-1.936-3.506-3.891-3.907z" fill="#ffffff"/>
</svg>
