<?xml version="1.0" encoding="UTF-8" standalone="no"?>
<svg
   width="64"
   height="64"
   version="1"
   id="svg16"
   sodipodi:docname="mx-samba-config.svg"
   inkscape:version="1.1.1 (3bf5ae0d25, 2021-09-20)"
   xmlns:inkscape="http://www.inkscape.org/namespaces/inkscape"
   xmlns:sodipodi="http://sodipodi.sourceforge.net/DTD/sodipodi-0.dtd"
   xmlns="http://www.w3.org/2000/svg"
   xmlns:svg="http://www.w3.org/2000/svg">
  <defs
     id="defs20" />
  <sodipodi:namedview
     id="namedview18"
     pagecolor="#ffffff"
     bordercolor="#666666"
     borderopacity="1.0"
     inkscape:pageshadow="2"
     inkscape:pageopacity="0.0"
     inkscape:pagecheckerboard="0"
     showgrid="false"
     inkscape:zoom="2.6914063"
     inkscape:cx="-75.982583"
     inkscape:cy="-7.616836"
     inkscape:window-width="1564"
     inkscape:window-height="875"
     inkscape:window-x="36"
     inkscape:window-y="0"
     inkscape:window-maximized="1"
     inkscape:current-layer="svg16" />
  <rect
     style="opacity:0.2"
     width="56"
     height="36"
     x="4"
     y="22"
     rx="2.8"
     ry="2.8"
     id="rect2" />
  <path
     style="fill:#4877b1"
     d="M 4,46.2 C 4,47.751 5.2488,49 6.8,49 H 57.2 C 58.751,49 60,47.751 60,46.2 V 15.8 C 60,14.249 58.751,13 57.2,13 H 32 C 27.8,13 26.4,7 22.2,7 H 6.8 C 5.2488,7 4,8.2488 4,9.8"
     id="path4" />
  <rect
     style="opacity:0.2"
     width="56"
     height="36"
     x="4"
     y="20"
     rx="2.8"
     ry="2.8"
     id="rect6" />
  <rect
     style="fill:#e4e4e4"
     width="48"
     height="22"
     x="8"
     y="16"
     rx="2.8"
     ry="2.8"
     id="rect8" />
  <rect
     style="fill:#5294e2"
     width="56"
     height="36"
     x="4"
     y="21"
     rx="2.8"
     ry="2.8"
     id="rect10" />
  <path
     style="opacity:0.1;fill:#ffffff"
     d="M 6.8008,7 C 5.2496,7 4,8.2496 4,9.8008 V 10.801 C 4,9.2496 5.2496,8 6.8008,8 H 22.199 C 26.399,8 27.8,14 32,14 H 57.199 C 58.75,14 60,15.25 60,16.801 V 15.801 C 60,14.25 58.75,13 57.199,13 H 32 C 27.8,13 26.399,7 22.199,7 Z"
     id="path12" />
  <path
     style="fill:#e4e4e4;fill-opacity:1"
     d="m 31.650218,23.530901 c -3.351,0.64 -5.315,2.868 -6,6 h -4 v 4 h 4 c 0.685,3.131 2.65,5.36 6,6 z m 2,0 v 16 c 3.35,-0.64 5.315,-2.869 6,-6 h 4 v -4 h -4 c -0.685,-3.132 -2.649,-5.36 -6,-6 z"
     id="path14" />
  <text
     xml:space="preserve"
     style="font-size:8px;line-height:1.25;font-family:sans-serif;fill:#e4e4e4;fill-opacity:1"
     x="24.680779"
     y="51.435177"
     id="text9177"><tspan
       sodipodi:role="line"
       id="tspan9175"
       x="24.680779"
       y="51.435177"
       style="font-style:normal;font-variant:normal;font-weight:bold;font-stretch:normal;font-family:'Noto Sans';-inkscape-font-specification:'Noto Sans Bold';fill:#e4e4e4;fill-opacity:1">SMB</tspan></text>
</svg>
