<?xml version="1.0" encoding="UTF-8" standalone="no"?>
<svg
   width="64"
   height="64"
   version="1"
   id="svg12"
   xmlns="http://www.w3.org/2000/svg"
   xmlns:svg="http://www.w3.org/2000/svg">
  <defs
     id="defs16" />
  <g
     id="layer2"
     style="display:none">
    <rect
       style="display:inline;opacity:0.2;stroke-width:0.973328"
       width="53.052631"
       height="56"
       x="-58"
       y="-60"
       rx="2.6526315"
       ry="2.8"
       transform="matrix(0,-1,-1,0,0,0)"
       id="rect2" />
    <rect
       style="display:inline;opacity:0.1;fill:#ffffff;fill-opacity:1;stroke-width:0.973328"
       width="53.052631"
       height="56"
       x="-57.052631"
       y="-60"
       rx="2.6526315"
       ry="2.8"
       transform="matrix(0,-1,-1,0,0,0)"
       id="rect4" />
    <path
       style="opacity:0.1;fill:#ffffff;stroke-width:0.973328"
       d="M 6.8007812,4 C 5.2495813,4 4,5.1838138 4,6.6533717 V 7.6007401 C 4,6.1311822 5.2495813,4.9473684 6.8007812,4.9473684 H 57.199219 C 58.750419,4.9473684 60,6.1311822 60,7.6007401 V 6.6533717 C 60,5.1838138 58.750419,4 57.199219,4 Z"
       id="path14" />
  </g>
  <g
     id="g969"
     style="display:inline">
    <g
       id="g1045"
       transform="matrix(1.3271086,0,0,1.3271086,-6.5795204,-3.5981946)">
      <path
         style="opacity:0.2"
         d="m 24,12 c -2.762,0 -5,2.239 -5,5 0,2.761 2.238,5 5,5 2.762,0 5,-2.239 5,-5 0,-2.761 -2.238,-5 -5,-5 z m 0,13 c -9.999,0.006 -10,6.4 -10,6.4 V 34 c 0,0 1.846142,4 10,4 8.153858,0 10,-4 10,-4 v -2.6 c 0,0 0,-6.404 -9.998,-6.4 z"
         id="path965" />
      <path
         style="fill:#38a334;fill-opacity:1;stroke:none;stroke-opacity:1"
         d="m 24,11 c -2.762,0 -5,2.239 -5,5 0,2.761 2.238,5 5,5 2.762,0 5,-2.239 5,-5 0,-2.761 -2.238,-5 -5,-5 z m 0,13 c -9.999,0.006 -10,6.4 -10,6.4 V 33 c 0,0 1.846142,4 10,4 8.153858,0 10,-4 10,-4 v -2.6 c 0,0 0,-6.404 -9.998,-6.4 z"
         id="path967" />
    </g>
  </g>
  <g
     id="layer1"
     style="display:inline">
    <g
       id="g1049"
       transform="matrix(1.3271086,0,0,1.3271086,8.8783082,0.2662628)">
      <path
         style="opacity:0.2"
         d="m 24,12 c -2.762,0 -5,2.239 -5,5 0,2.761 2.238,5 5,5 2.762,0 5,-2.239 5,-5 0,-2.761 -2.238,-5 -5,-5 z m 0,13 c -9.999,0.006 -10,6.4 -10,6.4 V 34 c 0,0 1.846142,4 10,4 8.153858,0 10,-4 10,-4 v -2.6 c 0,0 0,-6.404 -9.998,-6.4 z"
         id="path8" />
      <path
         style="fill:#0f56d9;fill-opacity:1"
         d="m 24,11 c -2.762,0 -5,2.239 -5,5 0,2.761 2.238,5 5,5 2.762,0 5,-2.239 5,-5 0,-2.761 -2.238,-5 -5,-5 z m 0,13 c -9.999,0.006 -10,6.4 -10,6.4 V 33 c 0,0 1.846142,4 10,4 8.153858,0 10,-4 10,-4 v -2.6 c 0,0 0,-6.404 -9.998,-6.4 z"
         id="path10" />
    </g>
  </g>
</svg>
