<?xml version="1.0" encoding="UTF-8" standalone="no"?>
<svg
   xmlns:dc="http://purl.org/dc/elements/1.1/"
   xmlns:cc="http://creativecommons.org/ns#"
   xmlns:rdf="http://www.w3.org/1999/02/22-rdf-syntax-ns#"
   xmlns:svg="http://www.w3.org/2000/svg"
   xmlns="http://www.w3.org/2000/svg"
   xmlns:sodipodi="http://sodipodi.sourceforge.net/DTD/sodipodi-0.dtd"
   xmlns:inkscape="http://www.inkscape.org/namespaces/inkscape"
   width="48"
   height="48"
   version="1"
   id="svg12"
   sodipodi:docname="mx-welcome3.svg"
   inkscape:version="0.92.4 (5da689c313, 2019-01-14)"
   inkscape:export-filename="/media/Data/MX18-artwork/icon-project/potential-papirus/mx-welcome.png"
   inkscape:export-xdpi="96"
   inkscape:export-ydpi="96">
  <metadata
     id="metadata18">
    <rdf:RDF>
      <cc:Work
         rdf:about="">
        <dc:format>image/svg+xml</dc:format>
        <dc:type
           rdf:resource="http://purl.org/dc/dcmitype/StillImage" />
        <dc:title></dc:title>
      </cc:Work>
    </rdf:RDF>
  </metadata>
  <defs
     id="defs16" />
  <sodipodi:namedview
     pagecolor="#ffffff"
     bordercolor="#666666"
     borderopacity="1"
     objecttolerance="10"
     gridtolerance="10"
     guidetolerance="10"
     inkscape:pageopacity="0"
     inkscape:pageshadow="2"
     inkscape:window-width="1876"
     inkscape:window-height="1054"
     id="namedview14"
     showgrid="false"
     inkscape:zoom="4.9166667"
     inkscape:cx="-14.033898"
     inkscape:cy="24"
     inkscape:window-x="44"
     inkscape:window-y="0"
     inkscape:window-maximized="1"
     inkscape:current-layer="layer1" />
  <path
     opacity=".05"
     d="m6 5c-1.108 0-2 0.892-2 2v17h40v-17c0-1.108-0.892-2-2-2h-36z"
     id="path2" />
  <rect
     fill="#fabd7f"
     width="40"
     height="40"
     x="-44"
     y="-44"
     rx="2"
     ry="2"
     transform="matrix(0,-1,-1,0,0,0)"
     id="rect4" />
  <path
     fill="#fff"
     opacity=".2"
     d="m4 7v-1c0-1.108 0.892-2 2-2h36c1.108 0 2 0.892 2 2v1c0-1.108-0.892-2-2-2h-36c-1.108 0-2 0.892-2 2z"
     id="path8" />
  <path
     opacity=".2"
     d="m4 42v1c0 1.108 0.892 2 2 2h36c1.108 0 2-0.892 2-2v-1c0 1.108-0.892 2-2 2h-36c-1.108 0-2-0.892-2-2z"
     id="path10" />
  <g
     inkscape:groupmode="layer"
     id="layer1"
     inkscape:label="Layer 1">
    <g
       id="g1176"
       transform="matrix(1.2746999,0,0,0.95901331,5.1252375,10.740119)">
      <g
         id="g1118">
        <g
           id="g1116">
          <circle
             id="circle1112"
             r="2.6289999"
             cy="2.6289999"
             cx="14.887"
             style="fill:#010002" />
          <path
             id="path1114"
             d="m 24.557,1.918 c -0.432,-0.434 -1.135,-0.434 -1.571,0.003 0,0 -0.004,0.003 -0.008,0.006 L 18.83,6.108 H 10.945 L 6.796,1.927 C 6.792,1.924 6.789,1.921 6.789,1.921 6.352,1.484 5.649,1.484 5.217,1.918 4.783,2.352 4.783,3.055 5.217,3.486 5.221,3.49 5.223,3.491 5.224,3.494 v 0.002 l 6.417,6.589 -0.008,18.193 c 0,0.827 0.669,1.496 1.5,1.496 0.823,0 1.496,-0.669 1.496,-1.496 l -0.002,-12.16 h 0.127 0.266 0.128 l -0.002,12.159 c 0,0.827 0.672,1.496 1.495,1.496 0.831,0 1.5,-0.669 1.5,-1.496 L 18.133,10.085 24.55,3.496 V 3.494 c 10e-4,-0.003 0.003,-0.004 0.007,-0.008 0.434,-0.431 0.434,-1.134 0,-1.568 z"
             style="fill:#010002"
             inkscape:connector-curvature="0" />
        </g>
      </g>
      <g
         id="g1120" />
      <g
         id="g1122" />
      <g
         id="g1124" />
      <g
         id="g1126" />
      <g
         id="g1128" />
      <g
         id="g1130" />
      <g
         id="g1132" />
      <g
         id="g1134" />
      <g
         id="g1136" />
      <g
         id="g1138" />
      <g
         id="g1140" />
      <g
         id="g1142" />
      <g
         id="g1144" />
      <g
         id="g1146" />
      <g
         id="g1148" />
    </g>
  </g>
</svg>
