<?xml version="1.0" encoding="UTF-8" standalone="no"?>
<svg
   width="64"
   height="64"
   version="1.1"
   id="svg455"
   xmlns="http://www.w3.org/2000/svg"
   xmlns:svg="http://www.w3.org/2000/svg">
  <defs
     id="defs459" />
  <rect
     style="opacity:0.2"
     width="56"
     height="56"
     x="4"
     y="5"
     rx="2.8"
     ry="2.8"
     id="rect4339" />
  <rect
     style="display:inline;fill:#f49c35;fill-opacity:1"
     width="56"
     height="56"
     x="4"
     y="4"
     rx="2.8"
     ry="2.8"
     id="rect4341" />
  <path
     style="display:inline;opacity:0.1;fill:#ffffff"
     d="m 6.8007818,4 c -1.5512,0 -2.800781,1.249581 -2.800781,2.800781 v 1 C 4.0000008,6.249581 5.2495818,5 6.8007818,5 H 57.19922 c 1.5512,0 2.800781,1.249581 2.800781,2.800781 v -1 C 60.000001,5.249581 58.75042,4 57.19922,4 Z"
     id="path4343" />
  <path
     d="m 28.375053,27.00105 -0.30869,3.68749 a 10.999821,10.999821 0 0 0 -3.214737,1.85933 l -3.351451,-1.57808 -3.499895,6.062169 3.042843,2.113236 a 10.999821,10.999821 0 0 0 -0.167994,1.8554 10.999821,10.999821 0 0 0 0.159946,1.86324 L 18,44.969232 21.499895,51.0314 24.843556,49.457217 a 10.999821,10.999821 0 0 0 3.222527,1.847594 L 28.374773,55 h 6.99979 l 0.308691,-3.687491 a 10.999821,10.999821 0 0 0 3.21479,-1.859361 l 3.351428,1.578105 3.499896,-6.062168 -3.042878,-2.113237 a 10.999821,10.999821 0 0 0 0.167993,-1.8554 10.999821,10.999821 0 0 0 -0.159944,-1.86324 l 3.035074,-2.105396 -3.499895,-6.062168 -3.34366,1.574182 A 10.999821,10.999821 0 0 0 35.68266,30.69589 L 35.374668,27 h -6.99979 z m 3.499894,9.999901 a 4.0000301,4.0000301 0 0 1 4.000381,4.000379 4.0000301,4.0000301 0 0 1 -4.000379,4.00038 4.0000301,4.0000301 0 0 1 -4.000379,-4.000381 4.0000301,4.0000301 0 0 1 4.000377,-4.000378 z"
     style="display:inline;fill:#252a35;fill-opacity:1;stroke:none;stroke-width:1;stroke-opacity:1;opacity:0.4"
     id="path1547" />
  <path
     d="m 28.375053,26.001412 -0.30869,3.68749 a 10.999821,10.999821 0 0 0 -3.214737,1.85933 l -3.351451,-1.57808 -3.499895,6.062169 3.042843,2.113236 a 10.999821,10.999821 0 0 0 -0.167994,1.8554 10.999821,10.999821 0 0 0 0.159946,1.86324 L 18,43.969594 l 3.499895,6.062168 3.343661,-1.574183 a 10.999821,10.999821 0 0 0 3.222527,1.847594 l 0.30869,3.695189 h 6.99979 l 0.308691,-3.687491 a 10.999821,10.999821 0 0 0 3.21479,-1.859361 l 3.351428,1.578105 3.499896,-6.062168 -3.042878,-2.113237 a 10.999821,10.999821 0 0 0 0.167993,-1.8554 10.999821,10.999821 0 0 0 -0.159944,-1.86324 l 3.035074,-2.105396 -3.499895,-6.062168 -3.34366,1.574182 A 10.999821,10.999821 0 0 0 35.68266,29.696252 l -0.307992,-3.69589 h -6.99979 z m 3.499894,9.999901 a 4.0000301,4.0000301 0 0 1 4.000381,4.000379 4.0000301,4.0000301 0 0 1 -4.000379,4.00038 4.0000301,4.0000301 0 0 1 -4.000379,-4.000381 4.0000301,4.0000301 0 0 1 4.000377,-4.000378 z"
     style="display:inline;fill:#252a35;fill-opacity:1;stroke-width:1;stroke:none;stroke-opacity:1"
     id="path441" />
  <path
     d="m 16.800195,15.705229 4.832488,5.593643 q 0.774035,0.895951 1.002085,1.967576 0.229698,1.049057 -0.203297,2.163173 -0.431346,1.091549 -1.642091,2.137543 -1.719258,1.48531 -3.368324,1.387608 -1.659527,-0.109808 -2.904258,-1.550595 L 9.7052293,21.83475 11.533454,20.2553 l 4.57099,5.290956 q 0.920474,1.065456 1.732899,1.124766 0.812426,0.05931 1.672055,-0.683345 0.895952,-0.774034 0.88756,-1.591403 0.0037,-0.827828 -0.864458,-1.832746 l -4.56053,-5.278849 z"
     style="display:inline;fill:#252a35;stroke:#252a35;stroke-width:1;stroke-linecap:square;stroke-miterlimit:2;paint-order:markers fill stroke;fill-opacity:1;opacity:0.4"
     id="path319" />
  <path
     d="m 32.980405,22.895719 -6.5267,0.803773 -1.39634,-11.338355 6.5267,-0.803773 0.24251,1.969126 -4.12882,0.50847 0.30704,2.493167 3.84297,-0.473268 0.2425,1.969126 -3.84297,0.473269 0.35984,2.921928 4.12881,-0.508469 z"
     style="display:inline;fill:#252a35;stroke:#252a35;stroke-width:1;stroke-linecap:square;stroke-miterlimit:2;paint-order:markers fill stroke;fill-opacity:1;opacity:0.4"
     id="path321" />
  <path
     d="m 38.866242,24.150349 -2.217625,-0.874988 4.192894,-10.626744 6.087309,2.401813 -0.728178,1.84554 -3.869683,-1.526824 -1.080522,2.738545 3.601782,1.421121 -0.728178,1.84554 -3.601782,-1.421121 z"
     style="display:inline;fill:#252a35;stroke:#252a35;stroke-width:1;stroke-linecap:square;stroke-miterlimit:2;paint-order:markers fill stroke;fill-opacity:1;opacity:0.4"
     id="path323" />
  <path
     d="m 44.207018,27.411518 7.949479,-8.2045 1.735126,1.681192 -7.949479,8.204501 z"
     style="display:inline;fill:#252a35;stroke:#252a35;stroke-width:1;stroke-linecap:square;stroke-miterlimit:2;paint-order:markers fill stroke;fill-opacity:1;opacity:0.4"
     id="path325" />
  <path
     d="m 16.800195,14.705229 4.832488,5.593643 q 0.774035,0.895951 1.002085,1.967576 0.229698,1.049057 -0.203297,2.163173 -0.431346,1.091549 -1.642091,2.137543 -1.719258,1.48531 -3.368324,1.387608 -1.659527,-0.109808 -2.904258,-1.550595 L 9.7052293,20.83475 11.533454,19.2553 l 4.57099,5.290956 q 0.920474,1.065456 1.732899,1.124766 0.812426,0.05931 1.672055,-0.683345 0.895952,-0.774034 0.88756,-1.591403 0.0037,-0.827828 -0.864458,-1.832746 l -4.56053,-5.278849 z"
     style="display:inline;fill:#252a35;stroke:#252a35;stroke-width:1;stroke-linecap:square;stroke-miterlimit:2;paint-order:markers fill stroke"
     id="path1562" />
  <path
     d="m 32.980405,21.895719 -6.5267,0.803773 -1.39634,-11.338355 6.5267,-0.803773 0.24251,1.969126 -4.12882,0.50847 0.30704,2.493167 3.84297,-0.473268 0.2425,1.969126 -3.84297,0.473269 0.35984,2.921928 4.12881,-0.508469 z"
     style="display:inline;fill:#252a35;stroke:#252a35;stroke-width:1;stroke-linecap:square;stroke-miterlimit:2;paint-order:markers fill stroke"
     id="path1564" />
  <path
     d="m 38.866242,23.150349 -2.217625,-0.874988 4.192894,-10.626744 6.087309,2.401813 -0.728178,1.84554 -3.869683,-1.526824 -1.080522,2.738545 3.601782,1.421121 -0.728178,1.84554 -3.601782,-1.421121 z"
     style="display:inline;fill:#252a35;stroke:#252a35;stroke-width:1;stroke-linecap:square;stroke-miterlimit:2;paint-order:markers fill stroke"
     id="path1566" />
  <path
     d="m 44.207018,26.411518 7.949479,-8.2045 1.735126,1.681192 -7.949479,8.204501 z"
     style="display:inline;fill:#252a35;stroke:#252a35;stroke-width:1;stroke-linecap:square;stroke-miterlimit:2;paint-order:markers fill stroke"
     id="path1568" />
</svg>
