<?xml version="1.0" encoding="UTF-8" standalone="no"?>
<svg
   width="64"
   height="64"
   version="1"
   id="svg46"
   xmlns="http://www.w3.org/2000/svg"
   xmlns:svg="http://www.w3.org/2000/svg">
  <defs
     id="defs50" />
  <g
     id="layer2"
     style="display:inline">
    <path
       d="M 4,21.9 V 55.19922 C 4,56.75042 5.249581,58 6.800781,58 h 49.398828 c 1.551201,0 2.754237,-1.25028 2.800782,-2.80078 V 21.9 Z"
       style="opacity:0.2;stroke-width:1"
       id="path2" />
    <path
       style="fill:#e4e4e4;stroke-width:1"
       d="M 4,20.9 V 54.19922 C 4,55.75042 5.249581,57 6.800781,57 h 49.398828 c 1.551201,0 2.800782,-1.24958 2.800782,-2.80078 V 20.9 Z"
       id="path4" />
    <rect
       style="display:inline;opacity:0.2;fill-rule:evenodd;stroke-width:1"
       width="8"
       height="8"
       x="33.185909"
       y="34.95108"
       id="rect32-6" />
    <path
       style="opacity:0.2;stroke-width:1"
       d="M 59.000391,22 V 10.8 c 0,-1.5512 -1.248801,-2.8 -2.8,-2.8 H 6.8 C 5.2488,8 4,9.2488 4,10.8 V 22 Z"
       id="path6" />
    <path
       d="M 59.000391,21 V 9.8 c 0,-1.5512 -1.248801,-2.8 -2.8,-2.8 H 6.8 C 5.2488,7 4,8.2488 4,9.8 V 21 Z"
       style="fill:#0f56d9;fill-opacity:1;stroke-width:1"
       id="path8" />
    <rect
       style="opacity:0.2;fill-rule:evenodd;stroke-width:1"
       width="8"
       height="8"
       x="33"
       y="24"
       id="rect10" />
    <rect
       width="8"
       height="8"
       x="44"
       y="24"
       style="opacity:0.2;fill-rule:evenodd;stroke-width:1"
       id="rect12" />
    <rect
       width="8"
       height="8"
       x="22"
       y="24"
       style="opacity:0.2;fill-rule:evenodd;stroke-width:1"
       id="rect14" />
    <rect
       style="opacity:0.2;fill-rule:evenodd;stroke-width:1"
       width="8"
       height="8"
       x="11"
       y="24"
       id="rect16" />
    <circle
       cx="14.5"
       cy="14.5"
       r="2.5"
       style="opacity:0.2;fill-rule:evenodd;stroke-width:1"
       id="circle22" />
    <circle
       style="fill:#ffffff;fill-rule:evenodd;stroke-width:1"
       cx="14.5"
       cy="13.5"
       r="2.5"
       id="circle24" />
    <circle
       style="opacity:0.2;fill-rule:evenodd;stroke-width:1"
       cx="48.5"
       cy="14.5"
       r="2.5"
       id="circle26" />
    <circle
       cx="48.5"
       cy="13.5"
       r="2.5"
       style="fill:#ffffff;fill-rule:evenodd;stroke-width:1"
       id="circle28" />
    <rect
       style="opacity:0.2;fill-rule:evenodd;stroke-width:1"
       width="8"
       height="8"
       x="44"
       y="35"
       id="rect30" />
    <rect
       style="opacity:0.2;fill-rule:evenodd;stroke-width:1"
       width="8"
       height="8"
       x="22"
       y="35"
       id="rect32" />
    <rect
       width="8"
       height="8"
       x="11"
       y="35"
       style="opacity:0.2;fill-rule:evenodd;stroke-width:1"
       id="rect34" />
    <rect
       style="opacity:0.2;fill-rule:evenodd;stroke-width:1"
       width="8"
       height="8"
       x="33"
       y="46"
       id="rect36" />
    <rect
       width="8"
       height="8"
       x="44"
       y="46"
       style="opacity:0.2;fill-rule:evenodd;stroke-width:1"
       id="rect38" />
    <rect
       width="8"
       height="8"
       x="22"
       y="46"
       style="opacity:0.2;fill-rule:evenodd;stroke-width:1"
       id="rect40" />
    <rect
       style="opacity:0.2;fill-rule:evenodd;stroke-width:1"
       width="8"
       height="8"
       x="11"
       y="46"
       id="rect42" />
    <path
       style="opacity:0.2;fill:#ffffff;stroke-width:1"
       d="M 6.800781,7 C 5.249581,7 4,8.249581 4,9.800781 v 1 C 4,9.249581 5.249581,8 6.800781,8 H 56.201172 C 57.752371,8 59,9.249581 59,10.800781 v -1 C 59,8.249581 57.752371,7 56.201172,7 Z"
       id="path44" />
  </g>
  <g
     id="layer1"
     style="display:inline">
    <g
       id="g849"
       transform="translate(-15,-7)">
      <path
         style="opacity:0.2;fill-rule:evenodd;stroke-width:1"
         d="M 62.958,45.848 A 16,16 0 0 1 47,61 16,16 0 0 1 31.042,46.152 16,16 0 0 0 31,47 16,16 0 0 0 47,63 16,16 0 0 0 63,47 16,16 0 0 0 62.958,45.848 Z"
         id="path16" />
      <circle
         style="fill:#ff3800;fill-opacity:1;fill-rule:evenodd;stroke-width:1"
         cx="47"
         cy="46"
         r="16"
         id="circle18-3" />
      <path
         style="fill:#ffffff;stroke-width:1"
         d="m 47,36 c -5.522847,0 -10,4.477153 -10,10 0,5.52285 4.477153,10 10,10 5.522847,0 10,-4.47715 10,-10 0,-5.522847 -4.477153,-10 -10,-10 z m 0,2 c 4.418278,0 8,3.581722 8,8 0,4.418278 -3.581722,8 -8,8 -4.418278,0 -8,-3.581722 -8,-8 0,-4.418278 3.581722,-8 8,-8 z m -1,2 v 5 2 h 2 5 v -2 h -5 v -5 z"
         id="path20" />
    </g>
  </g>
</svg>
