<?xml version="1.0" encoding="UTF-8" standalone="no"?>
<svg
   xmlns:dc="http://purl.org/dc/elements/1.1/"
   xmlns:cc="http://creativecommons.org/ns#"
   xmlns:rdf="http://www.w3.org/1999/02/22-rdf-syntax-ns#"
   xmlns:svg="http://www.w3.org/2000/svg"
   xmlns="http://www.w3.org/2000/svg"
   width="64"
   height="64"
   version="1"
   id="svg46">
  <metadata
     id="metadata52">
    <rdf:RDF>
      <cc:Work
         rdf:about="">
        <dc:format>image/svg+xml</dc:format>
        <dc:type
           rdf:resource="http://purl.org/dc/dcmitype/StillImage" />
        <dc:title />
      </cc:Work>
    </rdf:RDF>
  </metadata>
  <defs
     id="defs50" />
  <path
     d="M 0,18.698039 V 60.485294 C 0,62.431898 1.4540479,64 3.2590677,64 H 60.740932 C 62.545952,64 63.945838,62.431022 64,60.485294 V 18.698039 Z"
     style="opacity:0.4;stroke-width:1.20840359"
     id="path2" />
  <path
     style="fill:#3040c0;stroke-width:1.29770589;fill-opacity:1"
     d="m 0,10.5 v 48.191716 c 0,2.244948 1.4540479,4.053382 3.2590677,4.053382 H 60.740932 C 62.545952,62.745098 64,60.936664 64,58.691716 V 10.5 Z"
     id="path4" />
  <path
     style="opacity:1;stroke-width:0.90251851;fill:#303030;fill-opacity:1"
     d="M 64,10.5 V 2.6599993 C 64,1.5741595 62.546861,0.69999954 60.741842,0.69999954 H 3.2581587 C 1.4531388,0.69999954 0,1.5741595 0,2.6599993 V 10.5 Z"
     id="path6" />
  <path
     d="M 64,9.7999993 V 1.9599992 C 64,0.87415954 62.54686,-5e-7 60.741842,-5e-7 H 3.2581587 C 1.4531388,-5e-7 0,0.87415954 0,1.9599992 v 7.8400001 z"
     style="fill:#c03040;stroke-width:0.90251851;fill-opacity:1"
     id="path8" />
  <ellipse
     cx="12.218095"
     cy="5.2499995"
     style="opacity:0.2;fill-rule:evenodd;stroke-width:0.90251851"
     id="circle22"
     rx="2.9090703"
     ry="1.75" />
  <ellipse
     style="fill:#ffffff;fill-rule:evenodd;stroke-width:0.90251851;fill-opacity:1"
     cx="12.218095"
     cy="4.5499997"
     id="circle24"
     rx="2.9090703"
     ry="1.75" />
  <ellipse
     style="opacity:0.2;fill-rule:evenodd;stroke-width:0.90251851"
     cx="51.781452"
     cy="5.2499995"
     id="circle26"
     rx="2.9090703"
     ry="1.75" />
  <ellipse
     cx="51.781452"
     cy="4.5499997"
     style="fill:#ffffff;fill-rule:evenodd;stroke-width:0.90251851;fill-opacity:1"
     id="circle28"
     rx="2.9090703"
     ry="1.75" />
  <rect
     style="opacity:1;fill:#ffffff;fill-opacity:0.75294119;fill-rule:evenodd;stroke-width:1"
     width="8"
     height="8"
     x="28"
     y="50"
     id="rect36" />
  <rect
     width="8"
     height="8"
     x="39.5"
     y="50"
     style="opacity:1;fill:#ffffff;fill-opacity:0.75294119;fill-rule:evenodd;stroke-width:1"
     id="rect38" />
  <rect
     width="8"
     height="8"
     x="16.5"
     y="50"
     style="opacity:1;fill:#ffffff;fill-opacity:0.75294119;fill-rule:evenodd;stroke-width:1"
     id="rect40" />
  <rect
     style="opacity:1;fill:#ffffff;fill-opacity:0.75294119;fill-rule:evenodd;stroke-width:1"
     width="8"
     height="8"
     x="5"
     y="50"
     id="rect42" />
  <path
     style="opacity:0.2;fill:#ffffff;stroke-width:0.90251851"
     d="M 3.2590677,-5e-7 C 1.4540479,-5e-7 0,0.8747062 0,1.9605465 V 2.6605466 C 0,1.5747063 1.4540479,0.69999954 3.2590677,0.69999954 H 60.74275 c 1.805019,0 3.256795,0.87470676 3.256795,1.96054706 V 1.9605465 C 63.999545,0.8747062 62.547769,-5e-7 60.74275,-5e-7 Z"
     id="path44" />
  <rect
     width="8"
     height="8"
     x="51"
     y="50"
     style="opacity:1;fill:#ffffff;fill-opacity:0.75294119;fill-rule:evenodd;stroke-width:1"
     id="rect34-2" />
  <rect
     style="opacity:1;fill:#ffffff;fill-opacity:0.75294119;fill-rule:evenodd;stroke-width:1"
     width="8"
     height="8"
     x="28.000002"
     y="38.5"
     id="rect36-9" />
  <rect
     width="8"
     height="8"
     x="39.5"
     y="38.5"
     style="opacity:1;fill:#ffffff;fill-opacity:0.75294119;fill-rule:evenodd;stroke-width:1"
     id="rect38-1" />
  <rect
     width="8"
     height="8"
     x="16.500002"
     y="38.5"
     style="opacity:1;fill:#ffffff;fill-opacity:0.75294119;fill-rule:evenodd;stroke-width:1"
     id="rect40-2" />
  <rect
     style="opacity:1;fill:#ffffff;fill-opacity:0.75294119;fill-rule:evenodd;stroke-width:1"
     width="8"
     height="8"
     x="5"
     y="38.5"
     id="rect42-7" />
  <rect
     width="8"
     height="8"
     x="51"
     y="38.5"
     style="opacity:1;fill:#ffffff;fill-opacity:0.75294119;fill-rule:evenodd;stroke-width:1"
     id="rect34-2-0" />
  <rect
     style="opacity:1;fill:#ffffff;fill-opacity:0.75294119;fill-rule:evenodd;stroke-width:1"
     width="8"
     height="8"
     x="28"
     y="27"
     id="rect36-93" />
  <rect
     width="8"
     height="8"
     x="39.5"
     y="27"
     style="opacity:1;fill:#ffffff;fill-opacity:0.75294119;fill-rule:evenodd;stroke-width:1"
     id="rect38-6" />
  <rect
     width="8"
     height="8"
     x="16.5"
     y="27"
     style="opacity:1;fill:#ffffff;fill-opacity:0.75294119;fill-rule:evenodd;stroke-width:1"
     id="rect40-0" />
  <rect
     style="opacity:1;fill:#ffffff;fill-opacity:0.75294119;fill-rule:evenodd;stroke-width:1"
     width="8"
     height="8"
     x="5"
     y="27"
     id="rect42-6" />
  <rect
     width="8"
     height="8"
     x="51"
     y="27"
     style="opacity:1;fill:#ffffff;fill-opacity:0.75294119;fill-rule:evenodd;stroke-width:1"
     id="rect34-2-2" />
  <rect
     style="opacity:1;fill:#ffffff;fill-opacity:0.75294119;fill-rule:evenodd;stroke-width:1"
     width="8"
     height="8"
     x="28"
     y="15.5"
     id="rect36-2" />
  <rect
     width="8"
     height="8"
     x="39.5"
     y="15.5"
     style="opacity:1;fill:#ffffff;fill-opacity:0.75294119;fill-rule:evenodd;stroke-width:1"
     id="rect38-3" />
  <rect
     width="8"
     height="8"
     x="16.5"
     y="15.5"
     style="opacity:1;fill:#ffffff;fill-opacity:0.75294119;fill-rule:evenodd;stroke-width:1"
     id="rect40-7" />
  <rect
     style="opacity:1;fill:#ffffff;fill-opacity:0.75294119;fill-rule:evenodd;stroke-width:1"
     width="8"
     height="8"
     x="5"
     y="15.5"
     id="rect42-5" />
  <rect
     width="8"
     height="8"
     x="51"
     y="15.5"
     style="opacity:1;fill:#ffffff;fill-opacity:0.75294119;fill-rule:evenodd;stroke-width:1"
     id="rect34-2-9" />
  <g
     id="g4725"
     transform="matrix(0.07698626,0,0,0.07698626,134.02646,26.661336)">
    <text
       id="text6"
       style="font-size:129.22242737px;line-height:125%;font-family:'Gentium Book Basic';letter-spacing:0;word-spacing:0;stroke-width:3.54325271"
       y="-23.386477"
       x="444.84531" />
    <text
       id="text8"
       style="font-size:129.22242737px;line-height:125%;font-family:'Gentium Book Basic';letter-spacing:0;word-spacing:0;stroke-width:3.54325271"
       y="-103.35768"
       x="1026.1158" />
    <text
       id="text10"
       style="font-size:129.22242737px;line-height:125%;font-family:'Gentium Book Basic';letter-spacing:0;word-spacing:0;stroke-width:3.54325271"
       y="-284.63049"
       x="-45.469994" />
    <text
       id="text12"
       style="font-size:129.22242737px;line-height:125%;font-family:'Gentium Book Basic';letter-spacing:0;word-spacing:0;stroke-width:3.54325271"
       y="-501.0878"
       x="1052.584" />
    <text
       id="text14"
       style="font-size:129.22242737px;line-height:125%;font-family:'Gentium Book Basic';letter-spacing:0;word-spacing:0;stroke-width:3.54325271"
       y="-581.09442"
       x="1633.8545" />
    <text
       id="text16"
       style="font-size:129.22242737px;line-height:125%;font-family:'Gentium Book Basic';letter-spacing:0;word-spacing:0;stroke-width:3.54325271"
       y="-1053.4808"
       x="1244.7346" />
    <text
       id="text18"
       style="font-size:129.22242737px;line-height:125%;font-family:'Gentium Book Basic';letter-spacing:0;word-spacing:0;stroke-width:3.54325271"
       y="-1133.4874"
       x="1825.9698" />
    <text
       id="text20"
       style="font-size:208.3290863px;line-height:125%;font-family:'Gentium Book Basic';letter-spacing:0;word-spacing:0;stroke-width:3.54325271"
       y="281.19153"
       x="-6.8131185" />
    <g
       id="g863"
       transform="translate(-1298.9331,129.89331)">
      <path
         id="path2-5"
         d="m 219.63063,0.33333333 a 246.7973,246.79731 0 1 1 -493.5946,0 246.7973,246.79731 0 1 1 493.5946,0 z"
         style="fill:#101000;fill-opacity:0.75294119;fill-rule:evenodd" />
      <path
         d="M 193.79209,0.33333666 C 193.79209,122.36691 94.863348,221.29207 -27.166672,221.29207 c -122.033578,0 -220.958758,-98.92874 -220.958758,-220.95873334 0,-122.03358666 98.92876,-220.95874666 220.958758,-220.95874666 122.03359,0 220.958762,98.92874 220.958762,220.95874666"
         style="fill:#104020;fill-opacity:1;fill-rule:evenodd;stroke-width:3.54325271"
         id="path4-3" />
      <ellipse
         id="path56"
         style="fill:#00ffff;fill-opacity:1;stroke-width:30.23968315"
         cx="17.146738"
         cy="-99.947594"
         rx="25.978662"
         ry="77.935982"
         transform="matrix(-0.70710678,0.70710678,0.70710678,0.70710678,0,0)" />
      <ellipse
         id="path60"
         style="fill:#ffff00;fill-opacity:1;stroke-width:30.09438515"
         cx="18.964815"
         cy="-100.20081"
         rx="19.483995"
         ry="116.90398"
         transform="matrix(-0.70710678,-0.70710678,-0.70710678,0.70710678,0,0)" />
      <ellipse
         id="path3772"
         style="fill:#ff00ff;fill-opacity:1;stroke-width:11.12847805"
         ry="116.90398"
         rx="12.989331"
         cy="116.44498"
         cx="-26.361309" />
      <path
         d="m 25.591471,-0.43471793 a 51.957323,51.957323 0 0 1 -103.914636,0 51.957323,51.957323 0 1 1 103.914636,0"
         style="fill:#000000;fill-opacity:1;stroke-width:8.73677444"
         id="path32" />
    </g>
  </g>
</svg>
